<svg width="403" height="507" viewBox="0 0 403 507" fill="none" xmlns="http://www.w3.org/2000/svg">
<g filter="url(#filter0_d)">
<path d="M259.237 41.5774C260.073 41.6681 260.776 41.7863 261.345 41.932C261.93 42.0735 262.456 42.3383 262.924 42.7263C263.408 43.1101 263.743 43.6498 263.93 44.3453C264.22 45.4271 264.033 46.4296 263.369 47.3529C262.721 48.2719 261.708 48.974 260.331 49.459L260.661 51.8054C260.692 52.0455 260.624 52.2543 260.456 52.4318C260.308 52.6206 260.11 52.7481 259.863 52.8144C259.631 52.8765 259.419 52.8587 259.228 52.761C259.055 52.6746 258.954 52.5114 258.923 52.2713L258.603 49.8723C257.433 50.0201 256.437 49.8893 255.615 49.4801C254.809 49.0668 254.298 48.4583 254.083 47.6546C253.938 47.1137 253.965 46.6592 254.165 46.291C254.364 45.9228 254.657 45.6869 255.043 45.5834C255.43 45.4799 255.745 45.5115 255.988 45.6781C256.232 45.8448 256.454 46.1496 256.655 46.5925C256.797 46.9356 257.009 47.2018 257.292 47.3911C257.586 47.5608 257.931 47.6423 258.326 47.6356L257.858 44.0341C257.073 43.9464 256.386 43.824 255.797 43.667C255.22 43.4905 254.695 43.2004 254.222 42.797C253.761 42.3739 253.431 41.7915 253.232 41.0497C252.926 39.906 253.11 38.8628 253.785 37.92C254.46 36.9771 255.45 36.2813 256.754 35.8324L256.411 33.4397C256.364 33.2037 256.417 32.9991 256.569 32.8257C256.722 32.6524 256.914 32.5347 257.146 32.4726C257.377 32.4104 257.589 32.4282 257.781 32.5259C257.984 32.604 258.099 32.7554 258.126 32.98L258.442 35.4547C259.472 35.3443 260.344 35.4751 261.056 35.8474C261.769 36.2196 262.231 36.7998 262.442 37.588C262.583 38.1135 262.549 38.5449 262.342 38.8821C262.145 39.1998 261.846 39.4125 261.444 39.5202C261.12 39.6071 260.822 39.5791 260.552 39.4362C260.297 39.2891 260.117 39.0476 260.01 38.7118C259.79 38.0751 259.367 37.7329 258.741 37.6852L259.237 41.5774ZM255.849 40.1499C255.935 40.4744 256.12 40.7314 256.403 40.9207C256.681 41.0945 257.051 41.2358 257.51 41.3445L257.047 38.0397C256.542 38.2578 256.183 38.553 255.968 38.9253C255.768 39.2935 255.728 39.7017 255.849 40.1499ZM260.014 47.2579C260.534 47.0357 260.908 46.7616 261.136 46.4357C261.359 46.0943 261.417 45.7226 261.309 45.3208C261.226 45.0117 261.038 44.7723 260.744 44.6026C260.465 44.4288 260.083 44.2994 259.596 44.2144L260.014 47.2579Z" fill="#F1B500"/>
</g>
<g filter="url(#filter1_d)">
<path d="M24.4464 315.874C25.5543 315.703 26.4999 315.613 27.2831 315.604C28.0848 315.584 28.8542 315.744 29.5913 316.082C30.3469 316.409 30.9647 316.988 31.4447 317.82C32.1914 319.113 32.2967 320.469 31.7605 321.887C31.2429 323.294 30.1808 324.548 28.5742 325.648L29.8096 328.556C29.9327 328.854 29.9168 329.147 29.7619 329.433C29.6362 329.727 29.4256 329.96 29.13 330.131C28.8528 330.291 28.5739 330.341 28.2931 330.281C28.0415 330.229 27.8542 330.054 27.7312 329.756L26.4914 326.776C25.0361 327.37 23.7085 327.546 22.5087 327.302C21.3274 327.048 20.4595 326.441 19.9048 325.48C19.5315 324.833 19.4097 324.239 19.5396 323.696C19.6695 323.153 19.9654 322.748 20.4273 322.481C20.8892 322.214 21.3056 322.146 21.6767 322.277C22.0477 322.408 22.4394 322.724 22.8518 323.224C23.1525 323.617 23.5176 323.887 23.9469 324.033C24.384 324.15 24.8563 324.136 25.3637 323.991L23.5179 319.514C22.4761 319.672 21.549 319.752 20.7366 319.753C19.9321 319.725 19.1559 319.532 18.4081 319.176C17.6682 318.79 17.0422 318.154 16.5302 317.267C15.7408 315.9 15.6181 314.493 16.1621 313.046C16.706 311.598 17.7404 310.361 19.2653 309.332L17.9979 306.369C17.8563 306.081 17.8538 305.8 17.9901 305.524C18.1265 305.248 18.3332 305.03 18.6104 304.87C18.8875 304.71 19.1664 304.66 19.4472 304.72C19.7358 304.75 19.9362 304.905 20.0486 305.185L21.3086 308.264C22.5977 307.766 23.7654 307.634 24.8116 307.867C25.8579 308.1 26.653 308.688 27.197 309.631C27.5597 310.259 27.6654 310.826 27.5142 311.332C27.3708 311.809 27.0589 312.186 26.5785 312.463C26.1905 312.687 25.7979 312.754 25.4006 312.663C25.0217 312.562 24.7057 312.313 24.4526 311.917C23.9492 311.173 23.2863 310.878 22.4641 311.033L24.4464 315.874ZM19.5891 315.205C19.8131 315.593 20.1398 315.861 20.5691 316.007C20.9878 316.135 21.512 316.189 22.1416 316.17L20.4048 312.074C19.8299 312.529 19.4683 313.033 19.32 313.587C19.1901 314.13 19.2798 314.67 19.5891 315.205ZM27.407 322.922C28.0003 322.457 28.3871 321.975 28.5675 321.476C28.7372 320.96 28.6834 320.461 28.406 319.981C28.1927 319.611 27.8675 319.368 27.4304 319.251C27.0117 319.123 26.4744 319.088 25.8184 319.147L27.407 322.922Z" fill="#F1B500"/>
</g>
<g filter="url(#filter2_d)">
<path d="M382.018 193.709C383.206 194.578 384.167 195.371 384.902 196.09C385.664 196.816 386.23 197.678 386.601 198.676C386.998 199.681 387.034 200.792 386.708 202.009C386.2 203.902 385.04 205.258 383.226 206.077C381.44 206.902 379.291 207.08 376.779 206.61L375.227 210.455C375.064 210.847 374.778 211.103 374.368 211.225C373.978 211.382 373.567 211.402 373.134 211.286C372.728 211.177 372.423 210.965 372.218 210.649C372.032 210.368 372.021 210.031 372.184 209.64L373.798 205.725C371.896 204.925 370.502 203.856 369.614 202.516C368.754 201.184 368.512 199.815 368.889 198.408C369.142 197.462 369.581 196.797 370.206 196.413C370.83 196.03 371.481 195.929 372.157 196.11C372.833 196.291 373.283 196.615 373.506 197.08C373.729 197.546 373.799 198.202 373.717 199.05C373.631 199.694 373.72 200.283 373.983 200.817C374.28 201.331 374.731 201.757 375.337 202.093L377.779 196.225C376.665 195.405 375.731 194.618 374.976 193.865C374.255 193.092 373.713 192.193 373.35 191.169C373.022 190.124 373.031 188.952 373.379 187.654C373.915 185.653 375.107 184.233 376.955 183.395C378.803 182.556 380.912 182.368 383.281 182.829L384.855 178.902C384.991 178.504 385.25 178.24 385.633 178.111C386.015 177.981 386.409 177.971 386.815 178.079C387.221 178.188 387.526 178.4 387.731 178.716C387.971 179.012 388.013 179.343 387.857 179.707L386.17 183.733C387.828 184.467 389.034 185.428 389.789 186.616C390.543 187.804 390.735 189.087 390.366 190.467C390.119 191.386 389.691 192.011 389.081 192.34C388.505 192.649 387.866 192.71 387.163 192.522C386.595 192.369 386.169 192.067 385.884 191.614C385.627 191.168 385.564 190.644 385.697 190.042C385.92 188.884 385.578 187.995 384.672 187.376L382.018 193.709ZM378.131 188.58C377.979 189.148 378.034 189.699 378.297 190.233C378.567 190.74 379.003 191.277 379.605 191.844L381.794 186.431C380.839 186.319 380.035 186.452 379.383 186.828C378.759 187.212 378.341 187.795 378.131 188.58ZM378.225 202.997C379.208 203.116 380.014 203.027 380.644 202.732C381.281 202.41 381.694 201.898 381.882 201.194C382.027 200.653 381.951 200.126 381.654 199.611C381.384 199.104 380.918 198.573 380.255 198.019L378.225 202.997Z" fill="#F1B500"/>
</g>
<g opacity="0.2" filter="url(#filter3_f)">
<ellipse cx="201" cy="386" rx="186" ry="11" fill="black"/>
</g>
<path d="M285.382 362.392H303.979L299.687 384.565H289.673L285.382 362.392Z" fill="#AE4D2D"/>
<path d="M188.852 362.392H207.449L203.157 384.565H193.144L188.852 362.392Z" fill="#AE4D2D"/>
<path opacity="0.14" d="M285.382 362.392H303.979L299.687 384.565H289.674L285.382 362.392Z" fill="black"/>
<path opacity="0.14" d="M188.852 362.392H207.449L203.157 384.565H193.144L188.852 362.392Z" fill="black"/>
<path fill-rule="evenodd" clip-rule="evenodd" d="M245.106 111.707C243.497 114.629 240.389 116.609 236.818 116.609H189.902C184.682 116.609 180.449 112.377 180.449 107.156C180.449 101.935 184.682 97.7026 189.902 97.7026H214.326C215.364 93.2871 219.329 90 224.061 90H269.883C274.615 90 278.58 93.2871 279.618 97.7026H305.441C310.662 97.7026 314.894 101.935 314.894 107.156C314.894 112.377 310.662 116.609 305.441 116.609H258.525C254.954 116.609 251.846 114.629 250.238 111.707H245.106Z" fill="#FCE5D9"/>
<path opacity="0.05" fill-rule="evenodd" clip-rule="evenodd" d="M245.106 111.707C243.497 114.629 240.389 116.609 236.818 116.609H189.902C184.682 116.609 180.449 112.377 180.449 107.156C180.449 101.935 184.682 97.7026 189.902 97.7026H214.326C215.364 93.2871 219.329 90 224.061 90H269.883C274.615 90 278.58 93.2871 279.618 97.7026H305.441C310.662 97.7026 314.894 101.935 314.894 107.156C314.894 112.377 310.662 116.609 305.441 116.609H258.525C254.954 116.609 251.846 114.629 250.238 111.707H245.106Z" fill="black"/>
<rect x="162.243" y="111.707" width="168.757" height="257.687" rx="20" fill="#CF5C36"/>
<rect opacity="0.16" x="162.243" y="111.707" width="168.757" height="257.687" rx="20" fill="black"/>
<path d="M173.5 148C173.5 137.783 181.783 129.5 192 129.5H243.5V351.5H192C181.783 351.5 173.5 343.217 173.5 333V148Z" fill="#FCE5D9" stroke="#CF5C36" stroke-width="3"/>
<path d="M249.5 129.5H301C311.217 129.5 319.5 137.783 319.5 148V333C319.5 343.217 311.217 351.5 301 351.5H249.5V129.5Z" fill="#FCE5D9" stroke="#CF5C36" stroke-width="3"/>
<path opacity="0.05" d="M173.5 148C173.5 137.783 181.783 129.5 192 129.5H243.5V351.5H192C181.783 351.5 173.5 343.217 173.5 333V148Z" fill="black" stroke="#CF5C36" stroke-width="3"/>
<path opacity="0.05" d="M249.5 129.5H301C311.217 129.5 319.5 137.783 319.5 148V333C319.5 343.217 311.217 351.5 301 351.5H249.5V129.5Z" fill="black" stroke="#CF5C36" stroke-width="3"/>
<path d="M232.266 236.349C232.266 233.255 234.774 230.747 237.868 230.747V249.654C234.774 249.654 232.266 247.146 232.266 244.052V236.349Z" fill="#CF5C36"/>
<path d="M260.276 244.052C260.276 247.146 257.768 249.654 254.674 249.654L254.674 230.747C257.768 230.747 260.276 233.255 260.276 236.349L260.276 244.052Z" fill="#CF5C36"/>
<rect x="118.82" y="185.006" width="1.32031" height="17.8242" fill="#CF5C36"/>
<circle cx="119.48" cy="202.831" r="2.64061" fill="#CF5C36"/>
<g opacity="0.16">
<rect x="118.82" y="185.006" width="1.32031" height="17.8242" fill="black"/>
<circle cx="119.48" cy="202.831" r="2.64061" fill="black"/>
</g>
<rect x="88.4533" y="177.085" width="9.90231" height="207.288" fill="#CF5C36"/>
<rect opacity="0.16" x="88.4533" y="177.26" width="9.90231" height="207.288" fill="black"/>
<path fill-rule="evenodd" clip-rule="evenodd" d="M59.4061 113.05H126.742L153.148 186.987H152.053C152.043 186.996 152.033 187.004 152.023 187.013C152.014 187.02 152.005 187.028 151.995 187.036L150.119 188.513C149.756 188.799 149.244 188.799 148.881 188.513L147.243 187.223C146.91 188.059 146.272 188.804 145.288 189.291L142.38 190.73C141.262 191.283 139.949 191.283 138.831 190.73L135.923 189.291C135.83 189.245 135.741 189.197 135.654 189.147C135.568 189.197 135.478 189.245 135.385 189.291L132.477 190.73C131.359 191.283 130.047 191.283 128.929 190.73L126.02 189.291C125.804 189.184 125.605 189.065 125.422 188.935C125.239 189.065 125.039 189.184 124.823 189.291L121.915 190.73C120.797 191.283 119.485 191.283 118.366 190.73L115.458 189.291C115.365 189.245 115.276 189.197 115.189 189.147C115.103 189.197 115.013 189.245 114.921 189.291L112.012 190.73C110.894 191.283 109.582 191.283 108.464 190.73L105.556 189.291C104.978 189.005 104.519 188.63 104.172 188.2C103.824 188.63 103.366 189.005 102.788 189.291L99.8796 190.73C98.7616 191.283 97.4494 191.283 96.3314 190.73L93.4229 189.291C92.8814 189.023 92.4444 188.677 92.1056 188.28C91.7668 188.677 91.3298 189.023 90.7883 189.291L87.8798 190.73C86.7618 191.283 85.4496 191.283 84.3316 190.73L81.4231 189.291L81.3928 189.276C81.3826 189.271 81.3725 189.265 81.3625 189.26C81.3544 189.256 81.3464 189.252 81.3384 189.248C81.3104 189.262 81.2821 189.277 81.2536 189.291L78.3452 190.73C77.2271 191.283 75.9149 191.283 74.7969 190.73L71.8885 189.291C71.7957 189.245 71.706 189.197 71.6194 189.146C71.5328 189.197 71.4432 189.245 71.3504 189.291L68.442 190.73C67.324 191.283 66.0118 191.283 64.8937 190.73L61.9853 189.291C61.7694 189.184 61.5701 189.065 61.387 188.935C61.2039 189.065 61.0046 189.184 60.7887 189.291L57.8803 190.73C56.7622 191.283 55.4501 191.283 54.332 190.73L51.4236 189.291C51.3309 189.245 51.2412 189.197 51.1547 189.146C51.0681 189.197 50.9784 189.245 50.8857 189.291L47.9773 190.73C46.8593 191.283 45.5471 191.283 44.429 190.73L41.5206 189.291C40.4453 188.759 39.7824 187.918 39.4811 186.987H39.0528C39.0344 187.004 39.0151 187.02 38.995 187.036L37.1186 188.513C36.7557 188.799 36.2443 188.799 35.8814 188.513L34.005 187.036C33.9849 187.02 33.9656 187.004 33.9472 186.987H33L59.4061 113.05Z" fill="#FCE5D9"/>
<path d="M57.4258 386.353C57.4258 379.426 63.0415 373.81 69.9687 373.81H117.5C124.427 373.81 130.043 379.426 130.043 386.353H57.4258Z" fill="#CF5C36"/>
<rect x="87.1331" y="208.772" width="12.5429" height="17.164" fill="#CF5C36"/>
<path d="M185.489 366.693H201.978L198.173 386.353H189.294L185.489 366.693Z" fill="#AE4D2D"/>
<path opacity="0.14" d="M185.489 366.693H201.978L198.173 386.353H189.294L185.489 366.693Z" fill="black"/>
<path d="M109 366.693H125.489L121.684 386.353H112.805L109 366.693Z" fill="#AE4D2D"/>
<path opacity="0.14" d="M109 366.693H125.489L121.684 386.353H112.805L109 366.693Z" fill="black"/>
<rect x="214.115" y="219.243" width="148.085" height="117.326" rx="58.663" transform="rotate(90 214.115 219.243)" fill="#FCE5D9"/>
<rect x="111.204" y="335.315" width="88.0828" height="36.221" rx="14" fill="#CF5C36"/>
<path d="M203.969 267.125C214.126 267.125 222.361 275.359 222.361 285.516L222.361 346.767C222.361 360.574 211.168 371.767 197.361 371.767L185.577 371.767L185.577 285.516C185.577 275.359 193.812 267.125 203.969 267.125Z" fill="#CF5C36"/>
<path d="M106.936 267.125C117.094 267.125 125.328 275.359 125.328 285.516L125.328 371.767L113.545 371.767C99.7376 371.767 88.5448 360.574 88.5448 346.767L88.5448 285.516C88.5448 275.359 96.779 267.125 106.936 267.125Z" fill="#CF5C36"/>
<rect x="106.937" y="307.079" width="97.0318" height="28.5388" rx="10" fill="#FCE5D9"/>
<rect opacity="0.05" x="106.936" y="307.079" width="97.0318" height="28.5388" rx="10" fill="black"/>
<circle cx="207.457" cy="283.297" r="21.8797" fill="#CF5C36"/>
<circle cx="103.449" cy="283.297" r="21.8797" fill="#CF5C36"/>
<path d="M314.398 490.871C314.597 490.871 314.751 490.963 314.858 491.147C314.981 491.331 315.042 491.584 315.042 491.906C315.042 492.519 314.896 492.995 314.605 493.332C313.915 494.175 313.217 494.85 312.512 495.356C311.807 495.862 310.971 496.115 310.005 496.115C308.824 496.115 307.874 495.778 307.153 495.103C306.432 494.428 306.072 493.531 306.072 492.412C306.072 491.814 306.379 491.385 306.992 491.124C307.667 490.833 308.15 490.526 308.441 490.204C308.732 489.867 308.878 489.46 308.878 488.985C308.878 488.709 308.817 488.502 308.694 488.364C308.587 488.226 308.449 488.157 308.28 488.157C307.866 488.157 307.406 488.456 306.9 489.054C306.409 489.652 305.949 490.426 305.52 491.377C305.091 492.312 304.753 493.278 304.508 494.275C304.339 494.996 304.14 495.486 303.91 495.747C303.695 495.992 303.35 496.115 302.875 496.115C302.4 496.115 302.047 495.946 301.817 495.609C301.602 495.256 301.457 494.72 301.38 493.999C301.303 493.278 301.265 492.22 301.265 490.825C301.265 488.464 301.503 486.003 301.978 483.442C302.469 480.881 303.182 478.735 304.117 477.002C305.068 475.254 306.202 474.38 307.521 474.38C308.226 474.38 308.794 474.687 309.223 475.3C309.668 475.898 309.89 476.68 309.89 477.646C309.89 479.195 309.438 480.805 308.533 482.476C307.628 484.132 306.156 486.072 304.117 488.295C304.071 489.092 304.048 489.913 304.048 490.756C304.784 488.839 305.627 487.452 306.578 486.593C307.529 485.719 308.418 485.282 309.246 485.282C310.013 485.282 310.626 485.543 311.086 486.064C311.561 486.585 311.799 487.229 311.799 487.996C311.799 488.839 311.584 489.614 311.155 490.319C310.726 491.024 309.99 491.653 308.947 492.205C309.008 492.619 309.192 492.956 309.499 493.217C309.821 493.462 310.204 493.585 310.649 493.585C311.124 493.585 311.584 493.401 312.029 493.033C312.474 492.665 313.056 492.052 313.777 491.193C313.961 490.978 314.168 490.871 314.398 490.871ZM307.038 476.657C306.762 476.657 306.455 477.056 306.118 477.853C305.781 478.635 305.451 479.701 305.129 481.05C304.822 482.384 304.569 483.841 304.37 485.42C305.321 484.301 306.103 483.082 306.716 481.763C307.345 480.444 307.659 479.248 307.659 478.175C307.659 477.684 307.605 477.309 307.498 477.048C307.391 476.787 307.237 476.657 307.038 476.657ZM324.918 488.939C325.117 488.939 325.271 489.039 325.378 489.238C325.485 489.437 325.539 489.69 325.539 489.997C325.539 490.733 325.317 491.17 324.872 491.308C323.952 491.63 322.94 491.814 321.836 491.86C321.545 493.148 320.97 494.183 320.111 494.965C319.252 495.732 318.279 496.115 317.19 496.115C316.27 496.115 315.48 495.893 314.821 495.448C314.177 495.003 313.686 494.413 313.349 493.677C313.012 492.941 312.843 492.144 312.843 491.285C312.843 490.12 313.065 489.085 313.51 488.18C313.955 487.26 314.568 486.547 315.35 486.041C316.132 485.52 316.998 485.259 317.949 485.259C319.114 485.259 320.05 485.665 320.755 486.478C321.476 487.275 321.897 488.264 322.02 489.445C322.741 489.399 323.599 489.246 324.596 488.985C324.719 488.954 324.826 488.939 324.918 488.939ZM317.374 493.677C317.865 493.677 318.286 493.478 318.639 493.079C319.007 492.68 319.252 492.105 319.375 491.354C318.9 491.032 318.532 490.61 318.271 490.089C318.026 489.568 317.903 489.016 317.903 488.433C317.903 488.188 317.926 487.942 317.972 487.697H317.857C317.244 487.697 316.73 487.996 316.316 488.594C315.917 489.177 315.718 490.005 315.718 491.078C315.718 491.921 315.879 492.565 316.201 493.01C316.538 493.455 316.929 493.677 317.374 493.677ZM315.856 483.764C315.365 483.764 314.982 483.634 314.706 483.373C314.43 483.097 314.292 482.675 314.292 482.108C314.292 481.495 314.453 481.019 314.775 480.682C315.112 480.329 315.557 480.153 316.109 480.153C316.6 480.153 316.983 480.291 317.259 480.567C317.535 480.828 317.673 481.242 317.673 481.809C317.673 482.422 317.504 482.905 317.167 483.258C316.845 483.595 316.408 483.764 315.856 483.764ZM320.64 483.764C320.149 483.764 319.766 483.634 319.49 483.373C319.214 483.097 319.076 482.675 319.076 482.108C319.076 481.495 319.237 481.019 319.559 480.682C319.896 480.329 320.341 480.153 320.893 480.153C321.384 480.153 321.767 480.291 322.043 480.567C322.319 480.828 322.457 481.242 322.457 481.809C322.457 482.422 322.288 482.905 321.951 483.258C321.629 483.595 321.192 483.764 320.64 483.764ZM332.673 488.985C332.673 490.196 332.389 491.346 331.822 492.435C331.27 493.508 330.526 494.382 329.591 495.057C328.671 495.732 327.682 496.084 326.624 496.115C326.425 499.074 325.972 501.543 325.267 503.521C324.562 505.514 323.527 506.511 322.162 506.511C321.334 506.511 320.721 506.212 320.322 505.614C319.923 505.016 319.724 504.188 319.724 503.13C319.724 501.627 320.069 499.872 320.759 497.863C321.449 495.87 322.515 493.669 323.956 491.262C323.956 489.023 323.941 487.467 323.91 486.593C323.895 486.148 324.071 485.796 324.439 485.535C324.807 485.274 325.267 485.144 325.819 485.144C326.141 485.144 326.371 485.213 326.509 485.351C326.662 485.474 326.747 485.727 326.762 486.11C326.762 486.493 326.77 486.777 326.785 486.961C327.276 486.348 327.759 485.911 328.234 485.65C328.709 485.374 329.215 485.236 329.752 485.236C330.611 485.236 331.308 485.581 331.845 486.271C332.397 486.961 332.673 487.866 332.673 488.985ZM326.739 493.907C327.291 493.784 327.797 493.485 328.257 493.01C328.732 492.519 329.108 491.921 329.384 491.216C329.66 490.495 329.798 489.744 329.798 488.962C329.798 488.502 329.706 488.157 329.522 487.927C329.338 487.682 329.093 487.559 328.786 487.559C328.234 487.559 327.567 488.142 326.785 489.307C326.77 489.982 326.762 490.971 326.762 492.274C326.762 492.979 326.754 493.524 326.739 493.907ZM322.346 504.257C322.76 504.257 323.105 503.352 323.381 501.543C323.657 499.749 323.833 497.51 323.91 494.827C323.251 496.36 322.729 497.825 322.346 499.22C321.963 500.615 321.771 501.788 321.771 502.739C321.771 503.23 321.832 503.605 321.955 503.866C322.062 504.127 322.193 504.257 322.346 504.257Z" fill="#52B2CF"/>
<path d="M192.773 407.5C178.606 417.833 158.773 444.3 192.773 467.5C226.773 490.7 262.607 491.833 276.273 489.5M276.273 489.5L271.773 485M276.273 489.5L271.773 494" stroke="#52B2CF" stroke-width="2" stroke-linecap="round" stroke-linejoin="round"/>
<path d="M27.382 30.621C26.5847 30.621 25.9713 30.437 25.542 30.069C25.128 29.701 24.921 29.287 24.921 28.827C24.921 28.4283 25.0667 28.0833 25.358 27.792C25.6493 27.5007 26.0787 27.355 26.646 27.355C26.8453 27.355 27.0753 27.378 27.336 27.424C27.612 27.4547 27.819 27.4777 27.957 27.493C27.9417 27.0943 27.8497 26.7187 27.681 26.366C27.5277 26.0133 27.3283 25.676 27.083 25.354C26.8377 25.0167 26.6077 24.7253 26.393 24.48C25.9177 25.3847 25.4423 26.136 24.967 26.734C24.507 27.332 24.001 27.8993 23.449 28.436C23.173 28.712 22.8817 28.85 22.575 28.85C22.3297 28.85 22.1303 28.7657 21.977 28.597C21.8237 28.413 21.747 28.1907 21.747 27.93C21.747 27.6233 21.8543 27.3397 22.069 27.079L22.368 26.711C23.2113 25.6683 23.8477 24.8097 24.277 24.135C24.5377 23.6903 24.8443 23.1 25.197 22.364C25.5497 21.6127 25.8947 20.8383 26.232 20.041C26.5233 19.3663 27.129 19.029 28.049 19.029C28.4783 19.029 28.7773 19.0673 28.946 19.144C29.1147 19.2207 29.199 19.3433 29.199 19.512C29.199 19.604 29.1683 19.7497 29.107 19.949C29.0457 20.1483 28.9613 20.3477 28.854 20.547C28.578 21.099 28.44 21.5667 28.44 21.95C28.44 22.18 28.5167 22.433 28.67 22.709C28.8387 22.985 29.0917 23.33 29.429 23.744C29.9197 24.388 30.2877 24.94 30.533 25.4C30.7937 25.8447 30.924 26.3353 30.924 26.872C30.924 27.0253 30.9087 27.24 30.878 27.516C31.6293 27.2247 32.511 26.4503 33.523 25.193C33.707 24.9783 33.914 24.871 34.144 24.871C34.3433 24.871 34.4967 24.963 34.604 25.147C34.7267 25.331 34.788 25.584 34.788 25.906C34.788 26.4887 34.6423 26.964 34.351 27.332C33.5843 28.2827 32.8483 28.9343 32.143 29.287C31.453 29.6243 30.5943 29.8083 29.567 29.839C28.9537 30.3603 28.2253 30.621 27.382 30.621ZM35.7484 30.115C34.7978 30.115 34.0388 29.77 33.4714 29.08C32.9041 28.39 32.6204 27.4853 32.6204 26.366C32.6204 25.1393 32.9041 23.9817 33.4714 22.893C34.0388 21.789 34.7901 20.9073 35.7254 20.248C36.6761 19.5733 37.6804 19.236 38.7384 19.236C39.0758 19.236 39.2981 19.305 39.4054 19.443C39.5281 19.5657 39.6278 19.7957 39.7044 20.133C40.0264 20.0717 40.3638 20.041 40.7164 20.041C41.4678 20.041 41.8434 20.3093 41.8434 20.846C41.8434 21.168 41.7284 21.9347 41.4984 23.146C41.1458 24.9093 40.9694 26.136 40.9694 26.826C40.9694 27.056 41.0231 27.24 41.1304 27.378C41.2531 27.516 41.4064 27.585 41.5904 27.585C41.8818 27.585 42.2344 27.401 42.6484 27.033C43.0624 26.6497 43.6221 26.0363 44.3274 25.193C44.5114 24.9783 44.7184 24.871 44.9484 24.871C45.1478 24.871 45.3011 24.963 45.4084 25.147C45.5311 25.331 45.5924 25.584 45.5924 25.906C45.5924 26.5193 45.4468 26.9947 45.1554 27.332C44.5268 28.114 43.8598 28.7733 43.1544 29.31C42.4491 29.8467 41.7668 30.115 41.1074 30.115C40.6014 30.115 40.1338 29.9463 39.7044 29.609C39.2904 29.2563 38.9761 28.781 38.7614 28.183C37.9641 29.471 36.9598 30.115 35.7484 30.115ZM36.5764 27.792C36.9138 27.792 37.2358 27.5927 37.5424 27.194C37.8491 26.7953 38.0714 26.2663 38.2094 25.607L39.0604 21.375C38.4164 21.3903 37.8184 21.6357 37.2664 22.111C36.7298 22.571 36.3004 23.1843 35.9784 23.951C35.6564 24.7177 35.4954 25.5303 35.4954 26.389C35.4954 26.8643 35.5874 27.217 35.7714 27.447C35.9708 27.677 36.2391 27.792 36.5764 27.792ZM36.6454 17.764C36.1548 17.764 35.7714 17.6337 35.4954 17.373C35.2194 17.097 35.0814 16.6753 35.0814 16.108C35.0814 15.4947 35.2424 15.0193 35.5644 14.682C35.9018 14.3293 36.3464 14.153 36.8984 14.153C37.3891 14.153 37.7724 14.291 38.0484 14.567C38.3244 14.8277 38.4624 15.2417 38.4624 15.809C38.4624 16.4223 38.2938 16.9053 37.9564 17.258C37.6344 17.5953 37.1974 17.764 36.6454 17.764ZM41.4294 17.764C40.9388 17.764 40.5554 17.6337 40.2794 17.373C40.0034 17.097 39.8654 16.6753 39.8654 16.108C39.8654 15.4947 40.0264 15.0193 40.3484 14.682C40.6858 14.3293 41.1304 14.153 41.6824 14.153C42.1731 14.153 42.5564 14.291 42.8324 14.567C43.1084 14.8277 43.2464 15.2417 43.2464 15.809C43.2464 16.4223 43.0778 16.9053 42.7404 17.258C42.4184 17.5953 41.9814 17.764 41.4294 17.764ZM52.4401 24.871C52.6395 24.871 52.7928 24.963 52.9001 25.147C53.0228 25.331 53.0841 25.584 53.0841 25.906C53.0841 26.5193 52.9385 26.9947 52.6471 27.332C51.9878 28.1447 51.2671 28.8117 50.4851 29.333C49.7185 29.8543 48.8445 30.115 47.8631 30.115C46.5138 30.115 45.5095 29.5017 44.8501 28.275C44.2061 27.0483 43.8841 25.4613 43.8841 23.514C43.8841 21.6433 44.1218 19.512 44.5971 17.12C45.0878 14.728 45.8008 12.6733 46.7361 10.956C47.6868 9.23867 48.8138 8.38 50.1171 8.38C50.8531 8.38 51.4281 8.725 51.8421 9.415C52.2715 10.0897 52.4861 11.0633 52.4861 12.336C52.4861 14.1607 51.9801 16.2767 50.9681 18.684C49.9561 21.0913 48.5838 23.4757 46.8511 25.837C46.9585 26.4657 47.1348 26.918 47.3801 27.194C47.6255 27.4547 47.9475 27.585 48.3461 27.585C48.9748 27.585 49.5268 27.4087 50.0021 27.056C50.4775 26.688 51.0831 26.067 51.8191 25.193C52.0031 24.9783 52.2101 24.871 52.4401 24.871ZM49.6111 10.657C49.2585 10.657 48.8598 11.2933 48.4151 12.566C47.9705 13.8387 47.5795 15.418 47.2421 17.304C46.9048 19.19 46.7208 20.9993 46.6901 22.732C47.7788 20.938 48.6451 19.144 49.2891 17.35C49.9331 15.5407 50.2551 13.8923 50.2551 12.405C50.2551 11.2397 50.0405 10.657 49.6111 10.657ZM54.0771 14.176C54.6444 14.176 55.1044 14.314 55.4571 14.59C55.8098 14.866 55.9861 15.257 55.9861 15.763C55.9861 16.3763 55.7868 16.867 55.3881 17.235C54.9894 17.5877 54.4604 17.764 53.8011 17.764C53.1571 17.764 52.6741 17.6183 52.3521 17.327C52.0301 17.0203 51.8691 16.5987 51.8691 16.062C51.8691 15.5253 52.0761 15.0807 52.4901 14.728C52.9194 14.36 53.4484 14.176 54.0771 14.176ZM53.8011 19.282C54.2611 19.282 54.5601 19.351 54.6981 19.489C54.8514 19.627 54.9281 19.8187 54.9281 20.064C54.9281 20.7233 54.6904 22.6017 54.2151 25.699C54.1538 26.067 54.0541 26.7187 53.9161 27.654C53.3488 31.5793 52.5591 34.692 51.5471 36.992C50.5351 39.3073 49.2011 40.465 47.5451 40.465C46.7478 40.465 46.1114 40.2197 45.6361 39.729C45.1454 39.2537 44.9001 38.625 44.9001 37.843C44.9001 36.7543 45.3218 35.589 46.1651 34.347C47.0084 33.1203 48.5954 31.6023 50.9261 29.793L51.0871 28.62C51.3018 27.148 51.4704 25.699 51.5931 24.273C51.6851 23.445 51.8308 22.2107 52.0301 20.57C52.0914 20.1253 52.2601 19.8033 52.5361 19.604C52.8121 19.3893 53.2338 19.282 53.8011 19.282ZM47.7981 38.234C48.1968 38.234 48.6338 37.7817 49.1091 36.877C49.5844 35.9723 50.0291 34.5157 50.4431 32.507C49.2778 33.5037 48.4421 34.4007 47.9361 35.198C47.4148 36.0107 47.1541 36.7237 47.1541 37.337C47.1541 37.935 47.3688 38.234 47.7981 38.234Z" fill="#F1B500"/>
<path d="M184.027 67.7699C183.9 68.3074 184.232 68.8461 184.77 68.9731C185.307 69.1002 185.846 68.7674 185.973 68.23L184.027 67.7699ZM78 17.9999L77.2929 17.2928C77.0656 17.5201 76.9614 17.8428 77.0129 18.1601C77.0644 18.4774 77.2653 18.7506 77.5528 18.8944L78 17.9999ZM83.707 13.7071C84.0976 13.3166 84.0976 12.6834 83.707 12.2929C83.3165 11.9024 82.6833 11.9024 82.2928 12.2929L83.707 13.7071ZM82.9999 20.5L82.5527 21.3944L82.5527 21.3944L82.9999 20.5ZM83.5528 21.8944C84.0468 22.1414 84.6475 21.9412 84.8944 21.4472C85.1414 20.9532 84.9412 20.3525 84.4472 20.1056L83.5528 21.8944ZM185.973 68.23C188.215 58.7467 186.874 36.3372 164.041 21.6588L162.959 23.3411C184.926 37.4627 186.119 58.9198 184.027 67.7699L185.973 68.23ZM164.041 21.6588C152.586 14.2948 135.754 12.0496 119.531 12.1625C103.266 12.2755 87.4164 14.7619 77.7714 17.0264L78.2286 18.9735C87.7502 16.7379 103.45 14.2743 119.544 14.1624C135.679 14.0502 152.014 16.3051 162.959 23.3411L164.041 21.6588ZM78.7071 18.707L83.707 13.7071L82.2928 12.2929L77.2929 17.2928L78.7071 18.707ZM77.5528 18.8944L82.5527 21.3944L83.4472 19.6056L78.4472 17.1055L77.5528 18.8944ZM82.5527 21.3944L83.5528 21.8944L84.4472 20.1056L83.4471 19.6056L82.5527 21.3944Z" fill="#FFBF00"/>
<defs>
<filter id="filter0_d" x="243.089" y="22.4363" width="30.9732" height="40.4142" filterUnits="userSpaceOnUse" color-interpolation-filters="sRGB">
<feFlood flood-opacity="0" result="BackgroundImageFix"/>
<feColorMatrix in="SourceAlpha" type="matrix" values="0 0 0 0 0 0 0 0 0 0 0 0 0 0 0 0 0 0 127 0"/>
<feOffset/>
<feGaussianBlur stdDeviation="5"/>
<feColorMatrix type="matrix" values="0 0 0 0 0.945098 0 0 0 0 0.709804 0 0 0 0 0 0 0 0 0.4 0"/>
<feBlend mode="normal" in2="BackgroundImageFix" result="effect1_dropShadow"/>
<feBlend mode="normal" in="SourceGraphic" in2="effect1_dropShadow" result="shape"/>
</filter>
<filter id="filter1_d" x="5.82922" y="294.695" width="36.2674" height="45.6102" filterUnits="userSpaceOnUse" color-interpolation-filters="sRGB">
<feFlood flood-opacity="0" result="BackgroundImageFix"/>
<feColorMatrix in="SourceAlpha" type="matrix" values="0 0 0 0 0 0 0 0 0 0 0 0 0 0 0 0 0 0 127 0"/>
<feOffset/>
<feGaussianBlur stdDeviation="5"/>
<feColorMatrix type="matrix" values="0 0 0 0 0.945098 0 0 0 0 0.709804 0 0 0 0 0 0 0 0 0.4 0"/>
<feBlend mode="normal" in2="BackgroundImageFix" result="effect1_dropShadow"/>
<feBlend mode="normal" in="SourceGraphic" in2="effect1_dropShadow" result="shape"/>
</filter>
<filter id="filter2_d" x="358.716" y="168.005" width="41.8318" height="53.3551" filterUnits="userSpaceOnUse" color-interpolation-filters="sRGB">
<feFlood flood-opacity="0" result="BackgroundImageFix"/>
<feColorMatrix in="SourceAlpha" type="matrix" values="0 0 0 0 0 0 0 0 0 0 0 0 0 0 0 0 0 0 127 0"/>
<feOffset/>
<feGaussianBlur stdDeviation="5"/>
<feColorMatrix type="matrix" values="0 0 0 0 0.945098 0 0 0 0 0.709804 0 0 0 0 0 0 0 0 0.4 0"/>
<feBlend mode="normal" in2="BackgroundImageFix" result="effect1_dropShadow"/>
<feBlend mode="normal" in="SourceGraphic" in2="effect1_dropShadow" result="shape"/>
</filter>
<filter id="filter3_f" x="5" y="365" width="392" height="42" filterUnits="userSpaceOnUse" color-interpolation-filters="sRGB">
<feFlood flood-opacity="0" result="BackgroundImageFix"/>
<feBlend mode="normal" in="SourceGraphic" in2="BackgroundImageFix" result="shape"/>
<feGaussianBlur stdDeviation="5" result="effect1_foregroundBlur"/>
</filter>
</defs>
</svg>
