<svg width="392" height="507" viewBox="0 0 392 507" fill="none" xmlns="http://www.w3.org/2000/svg">
<g opacity="0.2" filter="url(#filter0_f)">
<ellipse cx="196" cy="386" rx="186" ry="11" fill="black"/>
</g>
<path d="M280.382 362.392H298.979L294.687 384.565H284.673L280.382 362.392Z" fill="#AE4D2D"/>
<path d="M183.852 362.392H202.449L198.157 384.565H188.144L183.852 362.392Z" fill="#AE4D2D"/>
<path opacity="0.14" d="M280.382 362.392H298.979L294.687 384.565H284.674L280.382 362.392Z" fill="black"/>
<path opacity="0.14" d="M183.852 362.392H202.449L198.157 384.565H188.144L183.852 362.392Z" fill="black"/>
<path fill-rule="evenodd" clip-rule="evenodd" d="M240.106 111.707C238.497 114.629 235.389 116.609 231.818 116.609H184.902C179.682 116.609 175.449 112.377 175.449 107.156C175.449 101.935 179.682 97.7026 184.902 97.7026H209.326C210.364 93.2871 214.329 90 219.061 90H264.883C269.615 90 273.58 93.2871 274.618 97.7026H300.441C305.662 97.7026 309.894 101.935 309.894 107.156C309.894 112.377 305.662 116.609 300.441 116.609H253.525C249.954 116.609 246.846 114.629 245.238 111.707H240.106Z" fill="#FCE5D9"/>
<path opacity="0.05" fill-rule="evenodd" clip-rule="evenodd" d="M240.106 111.707C238.497 114.629 235.389 116.609 231.818 116.609H184.902C179.682 116.609 175.449 112.377 175.449 107.156C175.449 101.935 179.682 97.7026 184.902 97.7026H209.326C210.364 93.2871 214.329 90 219.061 90H264.883C269.615 90 273.58 93.2871 274.618 97.7026H300.441C305.662 97.7026 309.894 101.935 309.894 107.156C309.894 112.377 305.662 116.609 300.441 116.609H253.525C249.954 116.609 246.846 114.629 245.238 111.707H240.106Z" fill="black"/>
<rect x="157.243" y="111.707" width="168.757" height="257.687" rx="20" fill="#CF5C36"/>
<rect opacity="0.16" x="157.243" y="111.707" width="168.757" height="257.687" rx="20" fill="black"/>
<path d="M168.5 148C168.5 137.783 176.783 129.5 187 129.5H238.5V351.5H187C176.783 351.5 168.5 343.217 168.5 333V148Z" fill="#FCE5D9" stroke="#CF5C36" stroke-width="3"/>
<path d="M244.5 129.5H296C306.217 129.5 314.5 137.783 314.5 148V333C314.5 343.217 306.217 351.5 296 351.5H244.5V129.5Z" fill="#FCE5D9" stroke="#CF5C36" stroke-width="3"/>
<path opacity="0.05" d="M168.5 148C168.5 137.783 176.783 129.5 187 129.5H238.5V351.5H187C176.783 351.5 168.5 343.217 168.5 333V148Z" fill="black" stroke="#CF5C36" stroke-width="3"/>
<path opacity="0.05" d="M244.5 129.5H296C306.217 129.5 314.5 137.783 314.5 148V333C314.5 343.217 306.217 351.5 296 351.5H244.5V129.5Z" fill="black" stroke="#CF5C36" stroke-width="3"/>
<path d="M227.266 236.349C227.266 233.255 229.774 230.747 232.868 230.747V249.654C229.774 249.654 227.266 247.146 227.266 244.052V236.349Z" fill="#CF5C36"/>
<path d="M255.276 244.052C255.276 247.146 252.768 249.654 249.674 249.654L249.674 230.747C252.768 230.747 255.276 233.255 255.276 236.349L255.276 244.052Z" fill="#CF5C36"/>
<rect x="113.82" y="185.006" width="1.32031" height="17.8242" fill="#CF5C36"/>
<circle cx="114.48" cy="202.831" r="2.64061" fill="#CF5C36"/>
<g opacity="0.16">
<rect x="113.82" y="185.006" width="1.32031" height="17.8242" fill="black"/>
<circle cx="114.48" cy="202.831" r="2.64061" fill="black"/>
</g>
<rect x="83.4533" y="177.085" width="9.90231" height="207.288" fill="#CF5C36"/>
<rect opacity="0.16" x="83.4533" y="177.26" width="9.90231" height="207.288" fill="black"/>
<path fill-rule="evenodd" clip-rule="evenodd" d="M54.4061 113.05H121.742L148.148 186.987H147.053C147.043 186.996 147.033 187.004 147.023 187.013C147.014 187.02 147.005 187.028 146.995 187.036L145.119 188.513C144.756 188.799 144.244 188.799 143.881 188.513L142.243 187.223C141.91 188.059 141.272 188.804 140.288 189.291L137.38 190.73C136.262 191.283 134.949 191.283 133.831 190.73L130.923 189.291C130.83 189.245 130.741 189.197 130.654 189.147C130.568 189.197 130.478 189.245 130.385 189.291L127.477 190.73C126.359 191.283 125.047 191.283 123.929 190.73L121.02 189.291C120.804 189.184 120.605 189.065 120.422 188.935C120.239 189.065 120.039 189.184 119.823 189.291L116.915 190.73C115.797 191.283 114.485 191.283 113.366 190.73L110.458 189.291C110.365 189.245 110.276 189.197 110.189 189.147C110.103 189.197 110.013 189.245 109.921 189.291L107.012 190.73C105.894 191.283 104.582 191.283 103.464 190.73L100.556 189.291C99.978 189.005 99.5193 188.63 99.1718 188.2C98.8243 188.63 98.3657 189.005 97.7881 189.291L94.8796 190.73C93.7616 191.283 92.4494 191.283 91.3314 190.73L88.4229 189.291C87.8814 189.023 87.4444 188.677 87.1056 188.28C86.7668 188.677 86.3298 189.023 85.7883 189.291L82.8798 190.73C81.7618 191.283 80.4496 191.283 79.3316 190.73L76.4231 189.291L76.3928 189.276C76.3826 189.271 76.3725 189.265 76.3625 189.26C76.3544 189.256 76.3464 189.252 76.3384 189.248C76.3104 189.262 76.2821 189.277 76.2536 189.291L73.3452 190.73C72.2271 191.283 70.9149 191.283 69.7969 190.73L66.8885 189.291C66.7957 189.245 66.706 189.197 66.6194 189.146C66.5328 189.197 66.4432 189.245 66.3504 189.291L63.442 190.73C62.324 191.283 61.0118 191.283 59.8937 190.73L56.9853 189.291C56.7694 189.184 56.5701 189.065 56.387 188.935C56.2039 189.065 56.0046 189.184 55.7887 189.291L52.8803 190.73C51.7622 191.283 50.4501 191.283 49.332 190.73L46.4236 189.291C46.3309 189.245 46.2412 189.197 46.1547 189.146C46.0681 189.197 45.9784 189.245 45.8857 189.291L42.9773 190.73C41.8593 191.283 40.5471 191.283 39.429 190.73L36.5206 189.291C35.4453 188.759 34.7824 187.918 34.4811 186.987H34.0528C34.0344 187.004 34.0151 187.02 33.995 187.036L32.1186 188.513C31.7557 188.799 31.2443 188.799 30.8814 188.513L29.005 187.036C28.9849 187.02 28.9656 187.004 28.9472 186.987H28L54.4061 113.05Z" fill="#FCE5D9"/>
<path d="M52.4258 386.353C52.4258 379.426 58.0415 373.81 64.9687 373.81H112.5C119.427 373.81 125.043 379.426 125.043 386.353H52.4258Z" fill="#CF5C36"/>
<rect x="82.1331" y="208.772" width="12.5429" height="17.164" fill="#CF5C36"/>
<path d="M180.489 366.693H196.978L193.173 386.353H184.294L180.489 366.693Z" fill="#AE4D2D"/>
<path opacity="0.14" d="M180.489 366.693H196.978L193.173 386.353H184.294L180.489 366.693Z" fill="black"/>
<path d="M104 366.693H120.489L116.684 386.353H107.805L104 366.693Z" fill="#AE4D2D"/>
<path opacity="0.14" d="M104 366.693H120.489L116.684 386.353H107.805L104 366.693Z" fill="black"/>
<rect x="209.115" y="219.243" width="148.085" height="117.326" rx="58.663" transform="rotate(90 209.115 219.243)" fill="#FCE5D9"/>
<rect x="106.204" y="335.315" width="88.0828" height="36.221" rx="14" fill="#CF5C36"/>
<path d="M198.969 267.125C209.126 267.125 217.361 275.359 217.361 285.516L217.361 346.767C217.361 360.574 206.168 371.767 192.361 371.767L180.577 371.767L180.577 285.516C180.577 275.359 188.812 267.125 198.969 267.125Z" fill="#CF5C36"/>
<path d="M101.936 267.125C112.094 267.125 120.328 275.359 120.328 285.516L120.328 371.767L108.545 371.767C94.7376 371.767 83.5448 360.574 83.5448 346.767L83.5448 285.516C83.5448 275.359 91.779 267.125 101.936 267.125Z" fill="#CF5C36"/>
<rect x="101.937" y="307.079" width="97.0318" height="28.5388" rx="10" fill="#FCE5D9"/>
<rect opacity="0.05" x="101.936" y="307.079" width="97.0318" height="28.5388" rx="10" fill="black"/>
<circle cx="202.457" cy="283.297" r="21.8797" fill="#CF5C36"/>
<circle cx="98.4485" cy="283.297" r="21.8797" fill="#CF5C36"/>
<path d="M309.398 490.871C309.597 490.871 309.751 490.963 309.858 491.147C309.981 491.331 310.042 491.584 310.042 491.906C310.042 492.519 309.896 492.995 309.605 493.332C308.915 494.175 308.217 494.85 307.512 495.356C306.807 495.862 305.971 496.115 305.005 496.115C303.824 496.115 302.874 495.778 302.153 495.103C301.432 494.428 301.072 493.531 301.072 492.412C301.072 491.814 301.379 491.385 301.992 491.124C302.667 490.833 303.15 490.526 303.441 490.204C303.732 489.867 303.878 489.46 303.878 488.985C303.878 488.709 303.817 488.502 303.694 488.364C303.587 488.226 303.449 488.157 303.28 488.157C302.866 488.157 302.406 488.456 301.9 489.054C301.409 489.652 300.949 490.426 300.52 491.377C300.091 492.312 299.753 493.278 299.508 494.275C299.339 494.996 299.14 495.486 298.91 495.747C298.695 495.992 298.35 496.115 297.875 496.115C297.4 496.115 297.047 495.946 296.817 495.609C296.602 495.256 296.457 494.72 296.38 493.999C296.303 493.278 296.265 492.22 296.265 490.825C296.265 488.464 296.503 486.003 296.978 483.442C297.469 480.881 298.182 478.735 299.117 477.002C300.068 475.254 301.202 474.38 302.521 474.38C303.226 474.38 303.794 474.687 304.223 475.3C304.668 475.898 304.89 476.68 304.89 477.646C304.89 479.195 304.438 480.805 303.533 482.476C302.628 484.132 301.156 486.072 299.117 488.295C299.071 489.092 299.048 489.913 299.048 490.756C299.784 488.839 300.627 487.452 301.578 486.593C302.529 485.719 303.418 485.282 304.246 485.282C305.013 485.282 305.626 485.543 306.086 486.064C306.561 486.585 306.799 487.229 306.799 487.996C306.799 488.839 306.584 489.614 306.155 490.319C305.726 491.024 304.99 491.653 303.947 492.205C304.008 492.619 304.192 492.956 304.499 493.217C304.821 493.462 305.204 493.585 305.649 493.585C306.124 493.585 306.584 493.401 307.029 493.033C307.474 492.665 308.056 492.052 308.777 491.193C308.961 490.978 309.168 490.871 309.398 490.871ZM302.038 476.657C301.762 476.657 301.455 477.056 301.118 477.853C300.781 478.635 300.451 479.701 300.129 481.05C299.822 482.384 299.569 483.841 299.37 485.42C300.321 484.301 301.103 483.082 301.716 481.763C302.345 480.444 302.659 479.248 302.659 478.175C302.659 477.684 302.605 477.309 302.498 477.048C302.391 476.787 302.237 476.657 302.038 476.657ZM319.918 488.939C320.117 488.939 320.271 489.039 320.378 489.238C320.485 489.437 320.539 489.69 320.539 489.997C320.539 490.733 320.317 491.17 319.872 491.308C318.952 491.63 317.94 491.814 316.836 491.86C316.545 493.148 315.97 494.183 315.111 494.965C314.252 495.732 313.279 496.115 312.19 496.115C311.27 496.115 310.48 495.893 309.821 495.448C309.177 495.003 308.686 494.413 308.349 493.677C308.012 492.941 307.843 492.144 307.843 491.285C307.843 490.12 308.065 489.085 308.51 488.18C308.955 487.26 309.568 486.547 310.35 486.041C311.132 485.52 311.998 485.259 312.949 485.259C314.114 485.259 315.05 485.665 315.755 486.478C316.476 487.275 316.897 488.264 317.02 489.445C317.741 489.399 318.599 489.246 319.596 488.985C319.719 488.954 319.826 488.939 319.918 488.939ZM312.374 493.677C312.865 493.677 313.286 493.478 313.639 493.079C314.007 492.68 314.252 492.105 314.375 491.354C313.9 491.032 313.532 490.61 313.271 490.089C313.026 489.568 312.903 489.016 312.903 488.433C312.903 488.188 312.926 487.942 312.972 487.697H312.857C312.244 487.697 311.73 487.996 311.316 488.594C310.917 489.177 310.718 490.005 310.718 491.078C310.718 491.921 310.879 492.565 311.201 493.01C311.538 493.455 311.929 493.677 312.374 493.677ZM310.856 483.764C310.365 483.764 309.982 483.634 309.706 483.373C309.43 483.097 309.292 482.675 309.292 482.108C309.292 481.495 309.453 481.019 309.775 480.682C310.112 480.329 310.557 480.153 311.109 480.153C311.6 480.153 311.983 480.291 312.259 480.567C312.535 480.828 312.673 481.242 312.673 481.809C312.673 482.422 312.504 482.905 312.167 483.258C311.845 483.595 311.408 483.764 310.856 483.764ZM315.64 483.764C315.149 483.764 314.766 483.634 314.49 483.373C314.214 483.097 314.076 482.675 314.076 482.108C314.076 481.495 314.237 481.019 314.559 480.682C314.896 480.329 315.341 480.153 315.893 480.153C316.384 480.153 316.767 480.291 317.043 480.567C317.319 480.828 317.457 481.242 317.457 481.809C317.457 482.422 317.288 482.905 316.951 483.258C316.629 483.595 316.192 483.764 315.64 483.764ZM327.673 488.985C327.673 490.196 327.389 491.346 326.822 492.435C326.27 493.508 325.526 494.382 324.591 495.057C323.671 495.732 322.682 496.084 321.624 496.115C321.425 499.074 320.972 501.543 320.267 503.521C319.562 505.514 318.527 506.511 317.162 506.511C316.334 506.511 315.721 506.212 315.322 505.614C314.923 505.016 314.724 504.188 314.724 503.13C314.724 501.627 315.069 499.872 315.759 497.863C316.449 495.87 317.515 493.669 318.956 491.262C318.956 489.023 318.941 487.467 318.91 486.593C318.895 486.148 319.071 485.796 319.439 485.535C319.807 485.274 320.267 485.144 320.819 485.144C321.141 485.144 321.371 485.213 321.509 485.351C321.662 485.474 321.747 485.727 321.762 486.11C321.762 486.493 321.77 486.777 321.785 486.961C322.276 486.348 322.759 485.911 323.234 485.65C323.709 485.374 324.215 485.236 324.752 485.236C325.611 485.236 326.308 485.581 326.845 486.271C327.397 486.961 327.673 487.866 327.673 488.985ZM321.739 493.907C322.291 493.784 322.797 493.485 323.257 493.01C323.732 492.519 324.108 491.921 324.384 491.216C324.66 490.495 324.798 489.744 324.798 488.962C324.798 488.502 324.706 488.157 324.522 487.927C324.338 487.682 324.093 487.559 323.786 487.559C323.234 487.559 322.567 488.142 321.785 489.307C321.77 489.982 321.762 490.971 321.762 492.274C321.762 492.979 321.754 493.524 321.739 493.907ZM317.346 504.257C317.76 504.257 318.105 503.352 318.381 501.543C318.657 499.749 318.833 497.51 318.91 494.827C318.251 496.36 317.729 497.825 317.346 499.22C316.963 500.615 316.771 501.788 316.771 502.739C316.771 503.23 316.832 503.605 316.955 503.866C317.062 504.127 317.193 504.257 317.346 504.257Z" fill="#52B2CF"/>
<path d="M187.773 407.5C173.606 417.833 153.773 444.3 187.773 467.5C221.773 490.7 257.607 491.833 271.273 489.5M271.273 489.5L266.773 485M271.273 489.5L266.773 494" stroke="#52B2CF" stroke-width="2" stroke-linecap="round" stroke-linejoin="round"/>
<path d="M22.382 30.621C21.5847 30.621 20.9713 30.437 20.542 30.069C20.128 29.701 19.921 29.287 19.921 28.827C19.921 28.4283 20.0667 28.0833 20.358 27.792C20.6493 27.5007 21.0787 27.355 21.646 27.355C21.8453 27.355 22.0753 27.378 22.336 27.424C22.612 27.4547 22.819 27.4777 22.957 27.493C22.9417 27.0943 22.8497 26.7187 22.681 26.366C22.5277 26.0133 22.3283 25.676 22.083 25.354C21.8377 25.0167 21.6077 24.7253 21.393 24.48C20.9177 25.3847 20.4423 26.136 19.967 26.734C19.507 27.332 19.001 27.8993 18.449 28.436C18.173 28.712 17.8817 28.85 17.575 28.85C17.3297 28.85 17.1303 28.7657 16.977 28.597C16.8237 28.413 16.747 28.1907 16.747 27.93C16.747 27.6233 16.8543 27.3397 17.069 27.079L17.368 26.711C18.2113 25.6683 18.8477 24.8097 19.277 24.135C19.5377 23.6903 19.8443 23.1 20.197 22.364C20.5497 21.6127 20.8947 20.8383 21.232 20.041C21.5233 19.3663 22.129 19.029 23.049 19.029C23.4783 19.029 23.7773 19.0673 23.946 19.144C24.1147 19.2207 24.199 19.3433 24.199 19.512C24.199 19.604 24.1683 19.7497 24.107 19.949C24.0457 20.1483 23.9613 20.3477 23.854 20.547C23.578 21.099 23.44 21.5667 23.44 21.95C23.44 22.18 23.5167 22.433 23.67 22.709C23.8387 22.985 24.0917 23.33 24.429 23.744C24.9197 24.388 25.2877 24.94 25.533 25.4C25.7937 25.8447 25.924 26.3353 25.924 26.872C25.924 27.0253 25.9087 27.24 25.878 27.516C26.6293 27.2247 27.511 26.4503 28.523 25.193C28.707 24.9783 28.914 24.871 29.144 24.871C29.3433 24.871 29.4967 24.963 29.604 25.147C29.7267 25.331 29.788 25.584 29.788 25.906C29.788 26.4887 29.6423 26.964 29.351 27.332C28.5843 28.2827 27.8483 28.9343 27.143 29.287C26.453 29.6243 25.5943 29.8083 24.567 29.839C23.9537 30.3603 23.2253 30.621 22.382 30.621ZM30.7484 30.115C29.7978 30.115 29.0388 29.77 28.4714 29.08C27.9041 28.39 27.6204 27.4853 27.6204 26.366C27.6204 25.1393 27.9041 23.9817 28.4714 22.893C29.0388 21.789 29.7901 20.9073 30.7254 20.248C31.6761 19.5733 32.6804 19.236 33.7384 19.236C34.0758 19.236 34.2981 19.305 34.4054 19.443C34.5281 19.5657 34.6278 19.7957 34.7044 20.133C35.0264 20.0717 35.3638 20.041 35.7164 20.041C36.4678 20.041 36.8434 20.3093 36.8434 20.846C36.8434 21.168 36.7284 21.9347 36.4984 23.146C36.1458 24.9093 35.9694 26.136 35.9694 26.826C35.9694 27.056 36.0231 27.24 36.1304 27.378C36.2531 27.516 36.4064 27.585 36.5904 27.585C36.8818 27.585 37.2344 27.401 37.6484 27.033C38.0624 26.6497 38.6221 26.0363 39.3274 25.193C39.5114 24.9783 39.7184 24.871 39.9484 24.871C40.1478 24.871 40.3011 24.963 40.4084 25.147C40.5311 25.331 40.5924 25.584 40.5924 25.906C40.5924 26.5193 40.4468 26.9947 40.1554 27.332C39.5268 28.114 38.8598 28.7733 38.1544 29.31C37.4491 29.8467 36.7668 30.115 36.1074 30.115C35.6014 30.115 35.1338 29.9463 34.7044 29.609C34.2904 29.2563 33.9761 28.781 33.7614 28.183C32.9641 29.471 31.9598 30.115 30.7484 30.115ZM31.5764 27.792C31.9138 27.792 32.2358 27.5927 32.5424 27.194C32.8491 26.7953 33.0714 26.2663 33.2094 25.607L34.0604 21.375C33.4164 21.3903 32.8184 21.6357 32.2664 22.111C31.7298 22.571 31.3004 23.1843 30.9784 23.951C30.6564 24.7177 30.4954 25.5303 30.4954 26.389C30.4954 26.8643 30.5874 27.217 30.7714 27.447C30.9708 27.677 31.2391 27.792 31.5764 27.792ZM31.6454 17.764C31.1548 17.764 30.7714 17.6337 30.4954 17.373C30.2194 17.097 30.0814 16.6753 30.0814 16.108C30.0814 15.4947 30.2424 15.0193 30.5644 14.682C30.9018 14.3293 31.3464 14.153 31.8984 14.153C32.3891 14.153 32.7724 14.291 33.0484 14.567C33.3244 14.8277 33.4624 15.2417 33.4624 15.809C33.4624 16.4223 33.2938 16.9053 32.9564 17.258C32.6344 17.5953 32.1974 17.764 31.6454 17.764ZM36.4294 17.764C35.9388 17.764 35.5554 17.6337 35.2794 17.373C35.0034 17.097 34.8654 16.6753 34.8654 16.108C34.8654 15.4947 35.0264 15.0193 35.3484 14.682C35.6858 14.3293 36.1304 14.153 36.6824 14.153C37.1731 14.153 37.5564 14.291 37.8324 14.567C38.1084 14.8277 38.2464 15.2417 38.2464 15.809C38.2464 16.4223 38.0778 16.9053 37.7404 17.258C37.4184 17.5953 36.9814 17.764 36.4294 17.764ZM47.4401 24.871C47.6395 24.871 47.7928 24.963 47.9001 25.147C48.0228 25.331 48.0841 25.584 48.0841 25.906C48.0841 26.5193 47.9385 26.9947 47.6471 27.332C46.9878 28.1447 46.2671 28.8117 45.4851 29.333C44.7185 29.8543 43.8445 30.115 42.8631 30.115C41.5138 30.115 40.5095 29.5017 39.8501 28.275C39.2061 27.0483 38.8841 25.4613 38.8841 23.514C38.8841 21.6433 39.1218 19.512 39.5971 17.12C40.0878 14.728 40.8008 12.6733 41.7361 10.956C42.6868 9.23867 43.8138 8.38 45.1171 8.38C45.8531 8.38 46.4281 8.725 46.8421 9.415C47.2715 10.0897 47.4861 11.0633 47.4861 12.336C47.4861 14.1607 46.9801 16.2767 45.9681 18.684C44.9561 21.0913 43.5838 23.4757 41.8511 25.837C41.9585 26.4657 42.1348 26.918 42.3801 27.194C42.6255 27.4547 42.9475 27.585 43.3461 27.585C43.9748 27.585 44.5268 27.4087 45.0021 27.056C45.4775 26.688 46.0831 26.067 46.8191 25.193C47.0031 24.9783 47.2101 24.871 47.4401 24.871ZM44.6111 10.657C44.2585 10.657 43.8598 11.2933 43.4151 12.566C42.9705 13.8387 42.5795 15.418 42.2421 17.304C41.9048 19.19 41.7208 20.9993 41.6901 22.732C42.7788 20.938 43.6451 19.144 44.2891 17.35C44.9331 15.5407 45.2551 13.8923 45.2551 12.405C45.2551 11.2397 45.0405 10.657 44.6111 10.657ZM49.0771 14.176C49.6444 14.176 50.1044 14.314 50.4571 14.59C50.8098 14.866 50.9861 15.257 50.9861 15.763C50.9861 16.3763 50.7868 16.867 50.3881 17.235C49.9894 17.5877 49.4604 17.764 48.8011 17.764C48.1571 17.764 47.6741 17.6183 47.3521 17.327C47.0301 17.0203 46.8691 16.5987 46.8691 16.062C46.8691 15.5253 47.0761 15.0807 47.4901 14.728C47.9194 14.36 48.4484 14.176 49.0771 14.176ZM48.8011 19.282C49.2611 19.282 49.5601 19.351 49.6981 19.489C49.8514 19.627 49.9281 19.8187 49.9281 20.064C49.9281 20.7233 49.6904 22.6017 49.2151 25.699C49.1538 26.067 49.0541 26.7187 48.9161 27.654C48.3488 31.5793 47.5591 34.692 46.5471 36.992C45.5351 39.3073 44.2011 40.465 42.5451 40.465C41.7478 40.465 41.1114 40.2197 40.6361 39.729C40.1454 39.2537 39.9001 38.625 39.9001 37.843C39.9001 36.7543 40.3218 35.589 41.1651 34.347C42.0084 33.1203 43.5954 31.6023 45.9261 29.793L46.0871 28.62C46.3018 27.148 46.4704 25.699 46.5931 24.273C46.6851 23.445 46.8308 22.2107 47.0301 20.57C47.0914 20.1253 47.2601 19.8033 47.5361 19.604C47.8121 19.3893 48.2338 19.282 48.8011 19.282ZM42.7981 38.234C43.1968 38.234 43.6338 37.7817 44.1091 36.877C44.5844 35.9723 45.0291 34.5157 45.4431 32.507C44.2778 33.5037 43.4421 34.4007 42.9361 35.198C42.4148 36.0107 42.1541 36.7237 42.1541 37.337C42.1541 37.935 42.3688 38.234 42.7981 38.234Z" fill="#F1B500"/>
<path d="M179.027 67.7699C178.9 68.3074 179.232 68.8461 179.77 68.9731C180.307 69.1002 180.846 68.7674 180.973 68.23L179.027 67.7699ZM73 17.9999L72.2929 17.2928C72.0656 17.5201 71.9614 17.8428 72.0129 18.1601C72.0644 18.4774 72.2653 18.7506 72.5528 18.8944L73 17.9999ZM78.707 13.7071C79.0976 13.3166 79.0976 12.6834 78.707 12.2929C78.3165 11.9024 77.6833 11.9024 77.2928 12.2929L78.707 13.7071ZM77.9999 20.5L77.5527 21.3944L77.5527 21.3944L77.9999 20.5ZM78.5528 21.8944C79.0468 22.1414 79.6475 21.9412 79.8944 21.4472C80.1414 20.9532 79.9412 20.3525 79.4472 20.1056L78.5528 21.8944ZM180.973 68.23C183.215 58.7467 181.874 36.3372 159.041 21.6588L157.959 23.3411C179.926 37.4627 181.119 58.9198 179.027 67.7699L180.973 68.23ZM159.041 21.6588C147.586 14.2948 130.754 12.0496 114.531 12.1625C98.2662 12.2755 82.4164 14.7619 72.7714 17.0264L73.2286 18.9735C82.7502 16.7379 98.4504 14.2743 114.544 14.1624C130.679 14.0502 147.014 16.3051 157.959 23.3411L159.041 21.6588ZM73.7071 18.707L78.707 13.7071L77.2928 12.2929L72.2929 17.2928L73.7071 18.707ZM72.5528 18.8944L77.5527 21.3944L78.4472 19.6056L73.4472 17.1055L72.5528 18.8944ZM77.5527 21.3944L78.5528 21.8944L79.4472 20.1056L78.4471 19.6056L77.5527 21.3944Z" fill="#FFBF00"/>
<defs>
<filter id="filter0_f" x="0" y="365" width="392" height="42" filterUnits="userSpaceOnUse" color-interpolation-filters="sRGB">
<feFlood flood-opacity="0" result="BackgroundImageFix"/>
<feBlend mode="normal" in="SourceGraphic" in2="BackgroundImageFix" result="shape"/>
<feGaussianBlur stdDeviation="5" result="effect1_foregroundBlur"/>
</filter>
</defs>
</svg>
