<svg width="20" height="20" viewBox="0 0 20 20" fill="none" xmlns="http://www.w3.org/2000/svg">
<path d="M4.7901 17.3371C4.5451 17.7615 4.09902 17.999 3.64097 17.999C3.41642 17.999 3.18906 17.942 2.98103 17.8219C2.34865 17.4568 2.1312 16.6453 2.49628 16.0129L2.75675 15.5618H5.81512L4.7901 17.3371Z" fill="white"/>
<path d="M2.2925 14.5024C1.56227 14.5024 0.968185 13.9083 0.968185 13.178C0.968185 12.4478 1.56227 11.8537 2.2925 11.8537H4.89758L8.47079 5.66474L7.5024 3.98742C7.13732 3.35503 7.35472 2.54349 7.9871 2.17835H7.98715C8.61954 1.81327 9.43108 2.03077 9.79617 2.66311L10 3.01617L10.2038 2.66316C10.5691 2.03072 11.3806 1.81332 12.0129 2.17841C12.3192 2.35528 12.5383 2.64086 12.6299 2.98253C12.7215 3.3242 12.6744 3.68113 12.4976 3.98747L7.95595 11.8537H10.8207L12.3499 14.5024H2.2925Z" fill="white"/>
<path d="M17.7075 14.5026H16.6316L17.5037 16.0131C17.8688 16.6454 17.6514 17.457 17.019 17.8221C16.8149 17.9399 16.5884 18.0001 16.3589 18.0001C16.2439 18.0001 16.1282 17.985 16.014 17.9544C15.6723 17.8628 15.3867 17.6437 15.2099 17.3373L10.6116 9.37299L12.1408 6.72437L15.1024 11.854H17.7075C18.4377 11.854 19.0318 12.448 19.0318 13.1783C19.0318 13.9085 18.4377 14.5026 17.7075 14.5026Z" fill="white"/>
<path d="M10 11.8538V14.5024H12.3499L10.8207 11.8538H10Z" fill="white"/>
<path d="M12.6299 2.98251C12.5383 2.64084 12.3192 2.35521 12.0128 2.17839C11.3806 1.8133 10.569 2.03065 10.2038 2.66314L10 3.01615V8.3134L12.4975 3.98745C12.6744 3.68111 12.7215 3.32424 12.6299 2.98251Z" fill="white"/>
</svg>
