<svg width="16" height="16" viewBox="0 0 16 16" fill="none" xmlns="http://www.w3.org/2000/svg">
<path d="M15.1198 0.880124C14.5332 0.293411 13.8265 0 13.0002 0H3.00001C2.17369 0 1.46697 0.293411 0.880138 0.880124C0.293416 1.46695 0 2.17362 0 2.99997V12.9999C0 13.8261 0.293416 14.5329 0.880138 15.1197C1.46697 15.7065 2.17369 16 3.00001 16H13.0001C13.8264 16 14.5331 15.7065 15.1197 15.1197C15.7065 14.5329 15.9999 13.8262 15.9999 12.9999V2.99997C15.9999 2.17362 15.7065 1.46684 15.1198 0.880124ZM12.2397 6.15627C12.2467 6.21877 12.2502 6.31235 12.2502 6.43757C12.2502 7.02092 12.165 7.60599 11.995 8.19263C11.8249 8.77957 11.5645 9.34205 11.2136 9.8802C10.8631 10.4183 10.4447 10.8942 9.95866 11.3073C9.47249 11.7203 8.88923 12.0503 8.20852 12.2967C7.52814 12.5434 6.79884 12.6667 6.02112 12.6667C4.81286 12.6667 3.6948 12.3401 2.66697 11.6876C2.83364 11.7084 3.00735 11.7188 3.1878 11.7188C4.1948 11.7188 5.10106 11.4063 5.90666 10.7812C5.4345 10.7744 5.01255 10.6287 4.64105 10.3437C4.26945 10.059 4.01084 9.69793 3.86497 9.2604C4.04547 9.28813 4.18086 9.30188 4.27113 9.30188C4.42389 9.30188 4.60103 9.27415 4.80236 9.21873C4.29543 9.12136 3.8684 8.86987 3.52117 8.46361C3.17387 8.05731 3.00027 7.59381 3.00027 7.07302V7.05219C3.36822 7.22568 3.71546 7.31594 4.04189 7.32298C3.40993 6.89928 3.09396 6.29174 3.09396 5.50009C3.09396 5.11116 3.19459 4.74314 3.39599 4.39591C3.94455 5.06957 4.61136 5.60768 5.39597 6.01044C6.18067 6.41316 7.02103 6.63896 7.91682 6.68753C7.88216 6.5556 7.86476 6.38886 7.86476 6.18754C7.86476 5.58328 8.07831 5.06774 8.50544 4.64062C8.93243 4.21352 9.44812 3.99991 10.0522 3.99991C10.6912 3.99991 11.2226 4.22914 11.6462 4.6875C12.1254 4.59724 12.5909 4.42007 13.0421 4.15628C12.8686 4.69086 12.5454 5.09715 12.0734 5.37495C12.5247 5.31234 12.9447 5.19435 13.3335 5.02075C13.0419 5.46517 12.6772 5.84363 12.2397 6.15627Z" fill="#444444"/>
</svg>
