<svg width="16" height="16" viewBox="0 0 16 16" fill="none" xmlns="http://www.w3.org/2000/svg">
<path d="M8 5.28333C9.80937 5.28333 10.7479 6.22188 10.7479 8.03125C10.7479 9.84063 9.80937 10.7792 8 10.7792C6.19062 10.7792 5.25208 9.84063 5.25208 8.03125C5.25208 6.22188 6.19062 5.28333 8 5.28333ZM8 5.28333C9.80937 5.28333 10.7479 6.22188 10.7479 8.03125C10.7479 9.84063 9.80937 10.7792 8 10.7792C6.19062 10.7792 5.25208 9.84063 5.25208 8.03125C5.25208 6.22188 6.19062 5.28333 8 5.28333ZM2.34375 0H13.6562C14.95 0 16 1.05 16 2.34375V13.6563C16 14.95 14.95 16 13.6562 16H2.34375C1.05 16 -8.34465e-07 14.95 -8.34465e-07 13.6563V2.34375C-8.34465e-07 1.05 1.05 0 2.34375 0ZM8 12.25C10.325 12.25 12.2187 10.3562 12.2187 8.03125C12.2187 5.70622 10.325 3.8125 8 3.8125C5.67503 3.8125 3.78125 5.70622 3.78125 8.03125C3.78125 10.3562 5.67503 12.25 8 12.25ZM2.84375 3.8125C3.35937 3.8125 3.78125 3.39063 3.78125 2.875C3.78125 2.35938 3.35937 1.9375 2.84375 1.9375C2.32812 1.9375 1.90625 2.35938 1.90625 2.875C1.90625 3.39063 2.32812 3.8125 2.84375 3.8125ZM8 5.28333C9.80937 5.28333 10.7479 6.22188 10.7479 8.03125C10.7479 9.84063 9.80937 10.7792 8 10.7792C6.19062 10.7792 5.25208 9.84063 5.25208 8.03125C5.25208 6.22188 6.19062 5.28333 8 5.28333ZM8 5.28333C9.80937 5.28333 10.7479 6.22188 10.7479 8.03125C10.7479 9.84063 9.80937 10.7792 8 10.7792C6.19062 10.7792 5.25208 9.84063 5.25208 8.03125C5.25208 6.22188 6.19062 5.28333 8 5.28333ZM8 5.28333C9.80937 5.28333 10.7479 6.22188 10.7479 8.03125C10.7479 9.84063 9.80937 10.7792 8 10.7792C6.19062 10.7792 5.25208 9.84063 5.25208 8.03125C5.25208 6.22188 6.19062 5.28333 8 5.28333Z" fill="#444444"/>
</svg>
