<svg width="40" height="56" viewBox="0 0 40 56" fill="none" xmlns="http://www.w3.org/2000/svg">
<g filter="url(#filter0_d)">
<path d="M22.1988 26.4417C23.5708 26.9737 24.7048 27.4917 25.6008 27.9957C26.5248 28.4997 27.2948 29.1857 27.9108 30.0537C28.5548 30.9217 28.8768 31.9857 28.8768 33.2457C28.8768 35.2057 28.1068 36.8157 26.5668 38.0757C25.0548 39.3357 23.0248 40.0637 20.4768 40.2597L19.9728 44.3757C19.9168 44.7957 19.7068 45.1177 19.3428 45.3417C19.0068 45.5937 18.6148 45.7197 18.1668 45.7197C17.7468 45.7197 17.3968 45.5937 17.1168 45.3417C16.8648 45.1177 16.7668 44.7957 16.8228 44.3757L17.3688 40.1757C15.3248 39.8957 13.7008 39.2237 12.4968 38.1597C11.3208 37.0957 10.7328 35.8357 10.7328 34.3797C10.7328 33.3997 10.9848 32.6437 11.4888 32.1117C11.9928 31.5797 12.5948 31.3137 13.2948 31.3137C13.9948 31.3137 14.5128 31.5097 14.8488 31.9017C15.1848 32.2937 15.4228 32.9097 15.5628 33.7497C15.6468 34.3937 15.8848 34.9397 16.2768 35.3877C16.6968 35.8077 17.2428 36.1017 17.9148 36.2697L18.7548 29.9697C17.4668 29.4657 16.3608 28.9477 15.4368 28.4157C14.5408 27.8557 13.7848 27.1277 13.1688 26.2317C12.5808 25.3077 12.2868 24.1737 12.2868 22.8297C12.2868 20.7577 13.0708 19.0777 14.6388 17.7897C16.2068 16.5017 18.1948 15.7737 20.6028 15.6057L21.1068 11.4057C21.1348 10.9857 21.3168 10.6637 21.6528 10.4397C21.9888 10.2157 22.3668 10.1037 22.7868 10.1037C23.2068 10.1037 23.5568 10.2297 23.8368 10.4817C24.1448 10.7057 24.2708 11.0137 24.2148 11.4057L23.6268 15.7317C25.4188 16.0117 26.8328 16.6277 27.8688 17.5797C28.9048 18.5317 29.4228 19.7217 29.4228 21.1497C29.4228 22.1017 29.1708 22.8157 28.6668 23.2917C28.1908 23.7397 27.5888 23.9637 26.8608 23.9637C26.2728 23.9637 25.7828 23.7817 25.3908 23.4177C25.0268 23.0537 24.8308 22.5637 24.8028 21.9477C24.7188 20.7717 24.1588 20.0017 23.1228 19.6377L22.1988 26.4417ZM17.1168 22.4937C17.1168 23.0817 17.3128 23.5997 17.7048 24.0477C18.0968 24.4677 18.6568 24.8737 19.3848 25.2657L20.0988 19.4697C19.1468 19.6097 18.4048 19.9457 17.8728 20.4777C17.3688 21.0097 17.1168 21.6817 17.1168 22.4937ZM20.9388 36.3957C21.9188 36.2557 22.6748 35.9617 23.2068 35.5137C23.7388 35.0377 24.0048 34.4357 24.0048 33.7077C24.0048 33.1477 23.7948 32.6577 23.3748 32.2377C22.9828 31.8177 22.3948 31.4257 21.6108 31.0617L20.9388 36.3957Z" fill="#F1B500"/>
</g>
<defs>
<filter id="filter0_d" x="0.732819" y="0.103638" width="38.69" height="55.616" filterUnits="userSpaceOnUse" color-interpolation-filters="sRGB">
<feFlood flood-opacity="0" result="BackgroundImageFix"/>
<feColorMatrix in="SourceAlpha" type="matrix" values="0 0 0 0 0 0 0 0 0 0 0 0 0 0 0 0 0 0 127 0"/>
<feOffset/>
<feGaussianBlur stdDeviation="5"/>
<feColorMatrix type="matrix" values="0 0 0 0 0.945098 0 0 0 0 0.709804 0 0 0 0 0 0 0 0 0.4 0"/>
<feBlend mode="normal" in2="BackgroundImageFix" result="effect1_dropShadow"/>
<feBlend mode="normal" in="SourceGraphic" in2="effect1_dropShadow" result="shape"/>
</filter>
</defs>
</svg>
