<svg width="43" height="54" viewBox="0 0 43 54" fill="none" xmlns="http://www.w3.org/2000/svg">
<g filter="url(#filter0_d)">
<path d="M24.0183 25.7086C25.2059 26.5775 26.1672 27.3714 26.9022 28.0901C27.6643 28.8161 28.2305 29.678 28.6008 30.6759C28.9982 31.681 29.0339 32.7921 28.7078 34.0091C28.2005 35.9023 27.04 37.2582 25.2264 38.0767C23.4398 38.9024 21.2905 39.0802 18.7786 38.6101L17.2265 42.4554C17.0637 42.8466 16.7775 43.1032 16.3679 43.2254C15.9782 43.3818 15.5669 43.4021 15.1342 43.2861C14.7285 43.1774 14.423 42.9651 14.2178 42.6493C14.0324 42.3677 14.021 42.0313 14.1838 41.6401L15.7983 37.7245C13.8964 36.925 12.5017 35.8556 11.6141 34.5162C10.7535 33.1841 10.5117 31.8149 10.8885 30.4085C11.1421 29.4619 11.5812 28.7968 12.2057 28.4134C12.8303 28.03 13.4806 27.9289 14.1567 28.11C14.8329 28.2912 15.2825 28.6146 15.5056 29.0802C15.7287 29.5458 15.7992 30.2024 15.717 31.05C15.6314 31.6938 15.72 32.2828 15.9827 32.817C16.2797 33.3314 16.731 33.7567 17.3366 34.0929L19.7786 28.225C18.6649 27.4048 17.7306 26.6182 16.9758 25.8652C16.2553 25.0924 15.7135 24.1935 15.3504 23.1686C15.0215 22.1239 15.0311 20.9524 15.3789 19.6542C15.9152 17.6528 17.1073 16.233 18.9552 15.3947C20.8031 14.5564 22.9118 14.3678 25.2813 14.8287L26.8551 10.9023C26.9909 10.5038 27.25 10.2399 27.6325 10.1105C28.0151 9.98111 28.4092 9.97076 28.8149 10.0795C29.2206 10.1882 29.526 10.4005 29.7313 10.7163C29.9708 11.0124 30.0128 11.3425 29.8572 11.7067L28.1696 15.7331C29.8281 16.4674 31.0345 17.4283 31.7888 18.616C32.5431 19.8037 32.7354 21.0873 32.3658 22.4666C32.1194 23.3862 31.6912 24.0106 31.0812 24.3399C30.5055 24.6495 29.866 24.71 29.1628 24.5216C28.5948 24.3694 28.1686 24.0668 27.8842 23.6138C27.6268 23.168 27.5643 22.6439 27.6967 22.0417C27.92 20.884 27.5783 19.9953 26.6718 19.3756L24.0183 25.7086ZM20.1313 20.5798C19.9791 21.1477 20.0344 21.6988 20.2971 22.233C20.567 22.7402 21.0028 23.2773 21.6046 23.8443L23.7944 18.4306C22.8386 18.3195 22.0349 18.452 21.3833 18.8281C20.7588 19.2116 20.3415 19.7954 20.1313 20.5798ZM20.225 34.9973C21.2078 35.1157 22.0141 35.0274 22.644 34.7323C23.281 34.4103 23.6938 33.8976 23.8822 33.1944C24.0271 32.6535 23.9511 32.1258 23.6541 31.6115C23.3842 31.1043 22.9177 30.5735 22.2546 30.019L20.225 34.9973Z" fill="#F1B500"/>
</g>
<defs>
<filter id="filter0_d" x="0.716354" y="0.00500488" width="41.8318" height="53.3551" filterUnits="userSpaceOnUse" color-interpolation-filters="sRGB">
<feFlood flood-opacity="0" result="BackgroundImageFix"/>
<feColorMatrix in="SourceAlpha" type="matrix" values="0 0 0 0 0 0 0 0 0 0 0 0 0 0 0 0 0 0 127 0"/>
<feOffset/>
<feGaussianBlur stdDeviation="5"/>
<feColorMatrix type="matrix" values="0 0 0 0 0.945098 0 0 0 0 0.709804 0 0 0 0 0 0 0 0 0.4 0"/>
<feBlend mode="normal" in2="BackgroundImageFix" result="effect1_dropShadow"/>
<feBlend mode="normal" in="SourceGraphic" in2="effect1_dropShadow" result="shape"/>
</filter>
</defs>
</svg>
