<svg width="502" height="642" viewBox="0 0 502 642" fill="none" xmlns="http://www.w3.org/2000/svg">
<rect x="127" y="108" width="252" height="472" rx="50" fill="#CF5C36"/>
<rect x="141" y="123" width="224" height="441" rx="30" fill="#FFF9F5"/>
<path d="M195 123H311V123C311 130.18 305.18 136 298 136H208C200.82 136 195 130.18 195 123V123Z" fill="#CF5C36"/>
<rect x="125" y="216" width="5" height="27" rx="2" fill="#CF5C36"/>
<rect x="125" y="172" width="5" height="15" rx="2" fill="#CF5C36"/>
<rect x="376" y="227" width="5" height="38" rx="2" fill="#CF5C36"/>
<rect x="125" y="250" width="5" height="25" rx="2" fill="#CF5C36"/>
<circle cx="252.995" cy="343.005" r="33.0046" fill="#FCE5D9"/>
<path d="M241.414 356.22C239.943 356.22 238.747 355.759 237.827 354.836C236.938 353.914 236.493 352.53 236.493 350.685C236.493 349.916 236.616 348.917 236.861 347.687L244.266 318.889L251.073 317.967L243.3 348.563C243.177 349.025 243.116 349.517 243.116 350.039C243.116 350.654 243.254 351.1 243.53 351.377C243.837 351.623 244.327 351.746 245.002 351.746C245.891 351.746 246.719 351.377 247.485 350.639C248.252 349.87 248.804 348.886 249.141 347.687H251.073C249.938 351.008 248.482 353.268 246.704 354.467C244.925 355.636 243.162 356.22 241.414 356.22Z" fill="#CF5C36"/>
<path d="M252.618 331.175H259.241L258.505 334.634C260.039 333.312 261.832 332.651 263.887 332.651C265.604 332.651 266.968 333.22 267.98 334.358C268.992 335.495 269.498 337.356 269.498 339.938C269.498 342.368 269.145 344.827 268.44 347.318C267.735 349.778 266.539 351.884 264.852 353.637C263.166 355.359 260.943 356.22 258.184 356.22C256.221 356.22 254.918 355.666 254.274 354.559L251.882 365.813L244.938 367.474L252.618 331.175ZM256.758 352.207C258.23 352.207 259.441 351.515 260.391 350.132C261.372 348.748 262.078 347.103 262.507 345.196C262.967 343.259 263.197 341.461 263.197 339.8C263.197 337.248 262.43 335.972 260.897 335.972C260.345 335.972 259.778 336.172 259.195 336.572C258.643 336.971 258.153 337.525 257.724 338.232L255.01 351.146C255.255 351.853 255.838 352.207 256.758 352.207Z" fill="#CF5C36"/>
<path d="M197.438 416.009V404.587H199.859V414.009H204.492V416.009H197.438ZM208.195 411.626C208.195 412.491 208.336 413.145 208.617 413.587C208.904 414.03 209.367 414.251 210.008 414.251C210.643 414.251 211.099 414.033 211.375 413.595C211.656 413.153 211.797 412.496 211.797 411.626C211.797 410.762 211.656 410.113 211.375 409.681C211.094 409.249 210.633 409.033 209.992 409.033C209.357 409.033 208.898 409.249 208.617 409.681C208.336 410.108 208.195 410.757 208.195 411.626ZM214.234 411.626C214.234 413.048 213.859 414.16 213.109 414.962C212.359 415.764 211.315 416.166 209.977 416.166C209.138 416.166 208.398 415.983 207.758 415.619C207.117 415.249 206.625 414.72 206.281 414.033C205.938 413.345 205.766 412.543 205.766 411.626C205.766 410.199 206.138 409.09 206.883 408.298C207.628 407.507 208.674 407.111 210.023 407.111C210.862 407.111 211.602 407.293 212.242 407.658C212.883 408.022 213.375 408.546 213.719 409.228C214.062 409.91 214.234 410.71 214.234 411.626ZM221 416.166C219.974 416.166 219.169 415.793 218.586 415.048H218.461C218.544 415.778 218.586 416.199 218.586 416.314V419.853H216.203V407.275H218.141L218.477 408.408H218.586C219.143 407.543 219.969 407.111 221.062 407.111C222.094 407.111 222.901 407.509 223.484 408.306C224.068 409.103 224.359 410.21 224.359 411.626C224.359 412.559 224.221 413.369 223.945 414.056C223.674 414.744 223.286 415.267 222.781 415.626C222.276 415.986 221.682 416.166 221 416.166ZM220.297 409.017C219.708 409.017 219.279 409.199 219.008 409.564C218.737 409.923 218.596 410.52 218.586 411.353V411.611C218.586 412.548 218.724 413.22 219 413.626C219.281 414.033 219.724 414.236 220.328 414.236C221.396 414.236 221.93 413.356 221.93 411.595C221.93 410.736 221.797 410.093 221.531 409.666C221.271 409.233 220.859 409.017 220.297 409.017ZM231.125 416.166C230.099 416.166 229.294 415.793 228.711 415.048H228.586C228.669 415.778 228.711 416.199 228.711 416.314V419.853H226.328V407.275H228.266L228.602 408.408H228.711C229.268 407.543 230.094 407.111 231.188 407.111C232.219 407.111 233.026 407.509 233.609 408.306C234.193 409.103 234.484 410.21 234.484 411.626C234.484 412.559 234.346 413.369 234.07 414.056C233.799 414.744 233.411 415.267 232.906 415.626C232.401 415.986 231.807 416.166 231.125 416.166ZM230.422 409.017C229.833 409.017 229.404 409.199 229.133 409.564C228.862 409.923 228.721 410.52 228.711 411.353V411.611C228.711 412.548 228.849 413.22 229.125 413.626C229.406 414.033 229.849 414.236 230.453 414.236C231.521 414.236 232.055 413.356 232.055 411.595C232.055 410.736 231.922 410.093 231.656 409.666C231.396 409.233 230.984 409.017 230.422 409.017ZM236.352 405.017C236.352 404.241 236.784 403.853 237.648 403.853C238.513 403.853 238.945 404.241 238.945 405.017C238.945 405.387 238.836 405.676 238.617 405.884C238.404 406.087 238.081 406.189 237.648 406.189C236.784 406.189 236.352 405.798 236.352 405.017ZM238.836 416.009H236.453V407.275H238.836V416.009ZM247.438 413.416C247.438 414.311 247.125 414.994 246.5 415.462C245.88 415.931 244.951 416.166 243.711 416.166C243.076 416.166 242.534 416.121 242.086 416.033C241.638 415.949 241.219 415.824 240.828 415.658V413.689C241.271 413.897 241.768 414.072 242.32 414.212C242.878 414.353 243.367 414.423 243.789 414.423C244.654 414.423 245.086 414.173 245.086 413.673C245.086 413.486 245.029 413.335 244.914 413.22C244.799 413.1 244.602 412.968 244.32 412.822C244.039 412.671 243.664 412.496 243.195 412.298C242.523 412.017 242.029 411.757 241.711 411.517C241.398 411.278 241.169 411.004 241.023 410.697C240.883 410.384 240.812 410.001 240.812 409.548C240.812 408.772 241.112 408.173 241.711 407.751C242.315 407.324 243.169 407.111 244.273 407.111C245.326 407.111 246.349 407.34 247.344 407.798L246.625 409.517C246.188 409.33 245.779 409.176 245.398 409.056C245.018 408.936 244.63 408.876 244.234 408.876C243.531 408.876 243.18 409.067 243.18 409.447C243.18 409.66 243.292 409.845 243.516 410.001C243.745 410.158 244.242 410.389 245.008 410.697C245.69 410.973 246.19 411.231 246.508 411.47C246.826 411.71 247.06 411.986 247.211 412.298C247.362 412.611 247.438 412.983 247.438 413.416ZM264.008 410.283C264.008 412.173 263.539 413.626 262.602 414.642C261.664 415.658 260.32 416.166 258.57 416.166C256.82 416.166 255.477 415.658 254.539 414.642C253.602 413.626 253.133 412.168 253.133 410.267C253.133 408.366 253.602 406.916 254.539 405.916C255.482 404.91 256.831 404.408 258.586 404.408C260.341 404.408 261.682 404.913 262.609 405.923C263.542 406.934 264.008 408.387 264.008 410.283ZM255.672 410.283C255.672 411.559 255.914 412.52 256.398 413.166C256.883 413.811 257.607 414.134 258.57 414.134C260.503 414.134 261.469 412.85 261.469 410.283C261.469 407.71 260.508 406.423 258.586 406.423C257.622 406.423 256.896 406.749 256.406 407.4C255.917 408.046 255.672 409.007 255.672 410.283ZM274.25 416.009H271.867V410.908C271.867 410.278 271.755 409.806 271.531 409.494C271.307 409.176 270.951 409.017 270.461 409.017C269.794 409.017 269.312 409.241 269.016 409.689C268.719 410.132 268.57 410.869 268.57 411.9V416.009H266.188V407.275H268.008L268.328 408.392H268.461C268.727 407.97 269.091 407.653 269.555 407.439C270.023 407.22 270.555 407.111 271.148 407.111C272.164 407.111 272.935 407.387 273.461 407.939C273.987 408.486 274.25 409.278 274.25 410.314V416.009ZM279.086 416.009H276.703V403.853H279.086V416.009ZM281.492 405.017C281.492 404.241 281.924 403.853 282.789 403.853C283.654 403.853 284.086 404.241 284.086 405.017C284.086 405.387 283.977 405.676 283.758 405.884C283.544 406.087 283.221 406.189 282.789 406.189C281.924 406.189 281.492 405.798 281.492 405.017ZM283.977 416.009H281.594V407.275H283.977V416.009ZM294.547 416.009H292.164V410.908C292.164 410.278 292.052 409.806 291.828 409.494C291.604 409.176 291.247 409.017 290.758 409.017C290.091 409.017 289.609 409.241 289.312 409.689C289.016 410.132 288.867 410.869 288.867 411.9V416.009H286.484V407.275H288.305L288.625 408.392H288.758C289.023 407.97 289.388 407.653 289.852 407.439C290.32 407.22 290.852 407.111 291.445 407.111C292.461 407.111 293.232 407.387 293.758 407.939C294.284 408.486 294.547 409.278 294.547 410.314V416.009ZM300.617 408.806C300.112 408.806 299.716 408.968 299.43 409.291C299.143 409.608 298.979 410.061 298.938 410.65H302.281C302.271 410.061 302.117 409.608 301.82 409.291C301.523 408.968 301.122 408.806 300.617 408.806ZM300.953 416.166C299.547 416.166 298.448 415.778 297.656 415.001C296.865 414.225 296.469 413.126 296.469 411.705C296.469 410.241 296.833 409.111 297.562 408.314C298.297 407.512 299.31 407.111 300.602 407.111C301.836 407.111 302.797 407.462 303.484 408.166C304.172 408.869 304.516 409.84 304.516 411.08V412.236H298.883C298.909 412.913 299.109 413.442 299.484 413.822C299.859 414.202 300.385 414.392 301.062 414.392C301.589 414.392 302.086 414.337 302.555 414.228C303.023 414.119 303.513 413.944 304.023 413.705V415.548C303.607 415.757 303.161 415.91 302.688 416.009C302.214 416.113 301.635 416.166 300.953 416.166ZM306.117 414.892C306.117 414.455 306.234 414.124 306.469 413.9C306.703 413.676 307.044 413.564 307.492 413.564C307.924 413.564 308.258 413.679 308.492 413.908C308.732 414.137 308.852 414.465 308.852 414.892C308.852 415.304 308.732 415.629 308.492 415.869C308.253 416.103 307.919 416.22 307.492 416.22C307.055 416.22 306.716 416.106 306.477 415.876C306.237 415.642 306.117 415.314 306.117 414.892Z" fill="#222222"/>
<path d="M463.552 599.656L463.6 599.296C463.6 599.008 463.432 598.864 463.096 598.864C462.776 598.864 462.464 599.08 462.16 599.512C461.856 599.928 461.704 600.272 461.704 600.544C461.704 600.816 461.72 601.032 461.752 601.192C461.784 601.352 461.816 601.488 461.848 601.6C461.896 601.696 461.968 601.816 462.064 601.96C462.16 602.104 462.232 602.208 462.28 602.272L462.544 602.608C462.656 602.768 462.736 602.872 462.784 602.92C463.616 602.232 464.608 601.464 465.76 600.616C465.824 600.568 465.896 600.544 465.976 600.544C466.136 600.544 466.216 600.632 466.216 600.808C466.216 600.984 466.144 601.12 466 601.216C464.976 601.872 464.008 602.584 463.096 603.352C463.448 603.864 463.624 604.424 463.624 605.032C463.624 605.64 463.392 606.16 462.928 606.592C462.464 607.024 461.872 607.24 461.152 607.24C460.432 607.24 460.072 606.896 460.072 606.208C460.072 605.712 460.6 604.952 461.656 603.928C461.576 603.832 461.432 603.68 461.224 603.472C461.016 603.248 460.856 603.072 460.744 602.944C460.648 602.816 460.528 602.648 460.384 602.44C460.128 602.04 460 601.608 460 601.144C460 600.2 460.304 599.44 460.912 598.864C461.52 598.272 462.168 597.976 462.856 597.976C463.288 597.976 463.624 598.096 463.864 598.336C464.104 598.56 464.224 598.792 464.224 599.032C464.224 599.576 464.096 599.848 463.84 599.848C463.648 599.848 463.552 599.784 463.552 599.656ZM462.016 604.384C461.376 605.024 461.056 605.544 461.056 605.944C461.056 606.328 461.256 606.52 461.656 606.52C461.896 606.52 462.096 606.424 462.256 606.232C462.608 605.752 462.528 605.136 462.016 604.384ZM466.864 605.704L466.888 606.448C466.888 606.896 466.76 607.12 466.504 607.12C466.12 607.12 465.752 607.072 465.4 606.976C465.048 606.864 464.872 606.72 464.872 606.544C464.872 606.352 464.912 605.72 464.992 604.648C465.088 603.56 465.136 602.744 465.136 602.2V600.784C465.136 600.016 465.216 599.552 465.376 599.392C465.536 599.232 465.816 599 466.216 598.696C466.632 598.392 466.928 598.24 467.104 598.24C467.296 598.24 467.416 598.272 467.464 598.336C467.512 598.4 467.536 598.52 467.536 598.696C467.536 599.544 467.376 600.344 467.056 601.096C466.976 602.008 466.936 602.64 466.936 602.992C467 602.896 467.336 602.352 467.944 601.36C468.552 600.368 469.064 599.64 469.48 599.176C469.912 598.712 470.296 598.48 470.632 598.48C470.968 598.48 471.264 598.592 471.52 598.816C471.792 599.04 471.928 599.32 471.928 599.656C471.928 600.36 471.848 601.4 471.688 602.776C471.544 604.136 471.472 605 471.472 605.368C471.472 605.72 471.52 605.896 471.616 605.896C471.888 605.88 472.264 605.544 472.744 604.888C473.224 604.216 473.696 603.36 474.16 602.32C474.64 601.28 474.928 600.76 475.024 600.76C475.136 600.76 475.192 600.824 475.192 600.952C475.192 601.4 474.96 602.112 474.496 603.088C473.232 605.776 472.168 607.12 471.304 607.12C470.68 607.12 470.208 606.992 469.888 606.736C469.776 606.624 469.72 606.336 469.72 605.872C469.72 605.392 469.76 604.624 469.84 603.568C469.936 602.496 469.984 601.696 469.984 601.168C469.984 600.64 469.888 600.376 469.696 600.376C469.52 600.376 469.04 600.928 468.256 602.032C467.472 603.12 467.056 603.816 467.008 604.12C466.912 604.68 466.864 605.208 466.864 605.704ZM480.642 607.12C480.018 607.12 479.546 606.992 479.226 606.736C479.114 606.624 479.058 606.344 479.058 605.896C479.058 605.432 479.074 604.816 479.106 604.048C478.69 605.088 478.274 605.864 477.858 606.376C477.458 606.872 476.938 607.12 476.298 607.12C475.658 607.12 475.098 606.824 474.618 606.232C474.138 605.624 473.898 604.68 473.898 603.4C473.898 602.104 474.258 600.96 474.978 599.968C475.714 598.976 476.674 598.48 477.858 598.48C478.37 598.48 478.946 598.816 479.586 599.488C479.714 599.312 479.938 599.104 480.258 598.864C480.594 598.608 480.874 598.48 481.098 598.48C481.338 598.48 481.458 598.784 481.458 599.392C481.458 599.552 481.41 599.864 481.314 600.328C481.234 600.792 481.138 601.128 481.026 601.336C480.882 601.704 480.81 603.008 480.81 605.248C480.81 605.68 480.858 605.896 480.954 605.896C481.226 605.88 481.602 605.544 482.082 604.888C482.562 604.216 483.034 603.36 483.498 602.32C483.978 601.28 484.266 600.76 484.362 600.76C484.474 600.76 484.53 600.824 484.53 600.952C484.53 601.4 484.298 602.112 483.834 603.088C482.57 605.776 481.506 607.12 480.642 607.12ZM477.714 599.44C477.266 599.44 476.786 599.776 476.274 600.448C475.778 601.104 475.53 601.88 475.53 602.776C475.53 603.672 475.658 604.408 475.914 604.984C476.186 605.56 476.538 605.848 476.97 605.848C477.498 605.848 478.274 604.528 479.298 601.888C479.314 601.76 479.33 601.544 479.346 601.24C479.378 600.92 479.402 600.68 479.418 600.52C479.274 600.264 479.018 600.024 478.65 599.8C478.298 599.56 477.986 599.44 477.714 599.44ZM487.574 598.72C488.31 598.72 488.918 598.992 489.398 599.536C489.878 600.064 490.126 600.808 490.142 601.768C490.798 601.576 491.374 601.344 491.87 601.072C492.382 600.8 492.654 600.664 492.686 600.664C492.782 600.664 492.83 600.744 492.83 600.904C492.83 601.064 492.598 601.312 492.134 601.648C491.686 601.984 491.006 602.32 490.094 602.656C489.902 604.08 489.326 605.184 488.366 605.968C487.406 606.736 486.446 607.12 485.486 607.12C484.526 607.12 483.886 606.768 483.566 606.064C483.246 605.344 483.086 604.216 483.086 602.68C483.086 601.144 483.198 599.688 483.422 598.312C483.646 596.936 483.934 595.856 484.286 595.072C484.638 594.272 484.998 593.664 485.366 593.248C485.75 592.816 486.11 592.6 486.446 592.6C486.606 592.6 486.75 592.792 486.878 593.176C487.022 593.56 487.094 594.032 487.094 594.592C487.094 595.824 486.87 597.264 486.422 598.912C486.726 598.784 487.11 598.72 487.574 598.72ZM488.654 603.04C488.526 603.056 488.254 603.064 487.838 603.064C487.438 603.064 486.99 602.928 486.494 602.656C486.014 602.368 485.686 601.976 485.51 601.48C485.35 601.88 485.166 602.264 484.958 602.632C484.99 603.848 485.086 604.72 485.246 605.248C485.406 605.776 485.662 606.04 486.014 606.04C486.574 606.04 487.118 605.808 487.646 605.344C488.19 604.864 488.526 604.096 488.654 603.04ZM486.518 595.024C486.518 594.352 486.43 594.016 486.254 594.016C486.11 594.016 485.934 594.368 485.726 595.072C485.534 595.76 485.35 596.704 485.174 597.904C485.014 599.088 484.934 600.264 484.934 601.432C485.99 598.44 486.518 596.304 486.518 595.024ZM487.19 599.584C486.966 599.584 486.782 599.656 486.638 599.8C486.51 599.928 486.446 600.104 486.446 600.328C486.446 600.824 486.662 601.24 487.094 601.576C487.542 601.896 488.078 602.056 488.702 602.056C488.686 601.4 488.558 600.824 488.318 600.328C488.078 599.832 487.702 599.584 487.19 599.584ZM496.176 598.72C496.912 598.72 497.52 598.992 498 599.536C498.48 600.064 498.728 600.808 498.743 601.768C499.4 601.576 499.976 601.344 500.472 601.072C500.984 600.8 501.256 600.664 501.288 600.664C501.384 600.664 501.432 600.744 501.432 600.904C501.432 601.064 501.2 601.312 500.736 601.648C500.288 601.984 499.608 602.32 498.696 602.656C498.504 604.08 497.928 605.184 496.968 605.968C496.008 606.736 495.048 607.12 494.088 607.12C493.128 607.12 492.488 606.768 492.168 606.064C491.848 605.344 491.688 604.216 491.688 602.68C491.688 601.144 491.8 599.688 492.024 598.312C492.248 596.936 492.536 595.856 492.888 595.072C493.24 594.272 493.6 593.664 493.968 593.248C494.352 592.816 494.712 592.6 495.048 592.6C495.208 592.6 495.352 592.792 495.48 593.176C495.624 593.56 495.696 594.032 495.696 594.592C495.696 595.824 495.472 597.264 495.024 598.912C495.328 598.784 495.712 598.72 496.176 598.72ZM497.256 603.04C497.128 603.056 496.856 603.064 496.44 603.064C496.04 603.064 495.592 602.928 495.096 602.656C494.616 602.368 494.288 601.976 494.112 601.48C493.952 601.88 493.768 602.264 493.56 602.632C493.592 603.848 493.688 604.72 493.848 605.248C494.008 605.776 494.264 606.04 494.616 606.04C495.176 606.04 495.72 605.808 496.248 605.344C496.792 604.864 497.128 604.096 497.256 603.04ZM495.12 595.024C495.12 594.352 495.032 594.016 494.855 594.016C494.712 594.016 494.536 594.368 494.328 595.072C494.136 595.76 493.952 596.704 493.776 597.904C493.616 599.088 493.536 600.264 493.536 601.432C494.592 598.44 495.12 596.304 495.12 595.024ZM495.792 599.584C495.568 599.584 495.384 599.656 495.24 599.8C495.112 599.928 495.048 600.104 495.048 600.328C495.048 600.824 495.264 601.24 495.696 601.576C496.144 601.896 496.68 602.056 497.304 602.056C497.288 601.4 497.16 600.824 496.92 600.328C496.68 599.832 496.304 599.584 495.792 599.584Z" fill="#AAAAAA"/>
<path d="M95.744 19.12C95.12 19.12 94.648 18.992 94.328 18.736C94.216 18.624 94.16 18.344 94.16 17.896C94.16 17.432 94.176 16.816 94.208 16.048C93.792 17.088 93.376 17.864 92.96 18.376C92.56 18.872 92.04 19.12 91.4 19.12C90.76 19.12 90.2 18.824 89.72 18.232C89.24 17.624 89 16.68 89 15.4C89 14.104 89.36 12.96 90.08 11.968C90.816 10.976 91.776 10.48 92.96 10.48C93.472 10.48 94.048 10.816 94.688 11.488C94.816 11.312 95.04 11.104 95.36 10.864C95.696 10.608 95.976 10.48 96.2 10.48C96.44 10.48 96.56 10.784 96.56 11.392C96.56 11.552 96.512 11.864 96.416 12.328C96.336 12.792 96.24 13.128 96.128 13.336C95.984 13.704 95.912 15.008 95.912 17.248C95.912 17.68 95.96 17.896 96.056 17.896C96.328 17.88 96.704 17.544 97.184 16.888C97.664 16.216 98.136 15.36 98.6 14.32C99.08 13.28 99.368 12.76 99.464 12.76C99.576 12.76 99.632 12.824 99.632 12.952C99.632 13.4 99.4 14.112 98.936 15.088C97.672 17.776 96.608 19.12 95.744 19.12ZM92.816 11.44C92.368 11.44 91.888 11.776 91.376 12.448C90.88 13.104 90.632 13.88 90.632 14.776C90.632 15.672 90.76 16.408 91.016 16.984C91.288 17.56 91.64 17.848 92.072 17.848C92.6 17.848 93.376 16.528 94.4 13.888C94.416 13.76 94.432 13.544 94.448 13.24C94.48 12.92 94.504 12.68 94.52 12.52C94.376 12.264 94.12 12.024 93.752 11.8C93.4 11.56 93.088 11.44 92.816 11.44ZM91.976 8.248C91.768 8.248 91.552 8.176 91.328 8.032C91.12 7.888 91.016 7.656 91.016 7.336C91.016 7.016 91.16 6.76 91.448 6.568C91.752 6.376 92.032 6.28 92.288 6.28C92.544 6.28 92.76 6.352 92.936 6.496C93.112 6.64 93.2 6.816 93.2 7.024C93.2 7.84 92.792 8.248 91.976 8.248ZM95.456 8.248C95.232 8.248 95.008 8.176 94.784 8.032C94.576 7.888 94.472 7.656 94.472 7.336C94.472 7.016 94.624 6.76 94.928 6.568C95.232 6.376 95.512 6.28 95.768 6.28C96.024 6.28 96.232 6.352 96.392 6.496C96.568 6.64 96.656 6.816 96.656 7.024C96.656 7.84 96.256 8.248 95.456 8.248ZM100.06 17.704L100.084 18.448C100.084 18.896 99.9555 19.12 99.6995 19.12C99.3155 19.12 98.9475 19.072 98.5955 18.976C98.2435 18.864 98.0675 18.72 98.0675 18.544C98.0675 18.352 98.1075 17.72 98.1875 16.648C98.2835 15.56 98.3315 14.744 98.3315 14.2V12.784C98.3315 12.016 98.4115 11.552 98.5715 11.392C98.7315 11.232 99.0115 11 99.4115 10.696C99.8275 10.392 100.124 10.24 100.3 10.24C100.492 10.24 100.612 10.272 100.66 10.336C100.708 10.4 100.732 10.52 100.732 10.696C100.732 11.544 100.572 12.344 100.252 13.096C100.172 14.008 100.132 14.64 100.132 14.992C100.196 14.896 100.532 14.352 101.14 13.36C101.748 12.368 102.26 11.64 102.676 11.176C103.108 10.712 103.492 10.48 103.828 10.48C104.164 10.48 104.46 10.592 104.716 10.816C104.988 11.04 105.124 11.32 105.124 11.656C105.124 12.36 105.044 13.4 104.884 14.776C104.74 16.136 104.668 17 104.668 17.368C104.668 17.72 104.716 17.896 104.812 17.896C105.084 17.88 105.46 17.544 105.94 16.888C106.42 16.216 106.892 15.36 107.356 14.32C107.836 13.28 108.124 12.76 108.22 12.76C108.332 12.76 108.388 12.824 108.388 12.952C108.388 13.4 108.156 14.112 107.692 15.088C106.428 17.776 105.364 19.12 104.5 19.12C103.876 19.12 103.404 18.992 103.084 18.736C102.972 18.624 102.916 18.336 102.916 17.872C102.916 17.392 102.956 16.624 103.036 15.568C103.132 14.496 103.18 13.696 103.18 13.168C103.18 12.64 103.084 12.376 102.892 12.376C102.716 12.376 102.236 12.928 101.452 14.032C100.668 15.12 100.252 15.816 100.204 16.12C100.108 16.68 100.06 17.208 100.06 17.704ZM114.822 19.84L115.47 19.768C115.598 19.768 115.662 19.832 115.662 19.96C115.662 20.184 115.51 20.352 115.206 20.464C114.902 20.576 114.558 20.632 114.174 20.632C113.454 20.632 112.846 20.344 112.35 19.768C111.87 19.192 111.198 18.128 110.334 16.576C110.126 16.24 110.022 15.984 110.022 15.808C110.022 15.568 110.358 15.288 111.03 14.968C112.118 14.408 112.662 13.704 112.662 12.856C112.662 12.616 112.574 12.416 112.398 12.256C112.238 12.08 112.022 11.992 111.75 11.992C111.366 11.992 110.91 12.448 110.382 13.36C109.854 14.256 109.494 15.104 109.302 15.904C109.126 16.688 109.038 17.536 109.038 18.448C109.038 18.896 108.91 19.12 108.654 19.12C108.286 19.12 107.934 19.072 107.598 18.976C107.262 18.864 107.094 18.728 107.094 18.568C107.094 18.392 107.158 17.632 107.286 16.288C107.414 14.928 107.486 13.952 107.502 13.36C107.566 10.096 107.758 7.6 108.078 5.872C108.126 5.728 108.342 5.48 108.726 5.128C109.126 4.776 109.446 4.6 109.686 4.6C109.926 4.6 110.038 4.904 110.022 5.512C110.022 6.104 109.894 7.384 109.638 9.352C109.382 11.32 109.222 13.12 109.158 14.752C109.446 13.728 109.902 12.76 110.526 11.848C111.166 10.936 111.806 10.48 112.446 10.48C113.534 10.48 114.078 11.008 114.078 12.064C114.078 12.768 113.87 13.408 113.454 13.984C113.038 14.544 112.478 15 111.774 15.352C111.63 15.416 111.558 15.488 111.558 15.568C111.558 15.648 111.582 15.728 111.63 15.808C112.638 17.584 113.494 18.832 114.198 19.552C114.39 19.744 114.598 19.84 114.822 19.84ZM118.248 19.12C117.352 19.12 116.64 18.784 116.112 18.112C115.584 17.424 115.32 16.648 115.32 15.784C115.32 14.04 115.688 12.72 116.424 11.824C117.16 10.928 118.112 10.48 119.28 10.48C119.824 10.48 120.272 10.632 120.624 10.936C120.976 11.224 121.152 11.624 121.152 12.136C121.152 13.096 120.744 13.904 119.928 14.56C119.128 15.2 118.144 15.536 116.976 15.568C117.04 16.192 117.248 16.736 117.6 17.2C117.968 17.648 118.392 17.872 118.872 17.872C119.352 17.872 119.784 17.76 120.168 17.536C120.552 17.312 120.904 16.992 121.224 16.576C121.896 15.696 122.472 14.696 122.952 13.576C123.08 13.288 123.176 13.08 123.24 12.952C123.32 12.824 123.4 12.76 123.48 12.76C123.576 12.76 123.624 12.824 123.624 12.952C123.624 13.752 123.136 14.952 122.16 16.552C121.104 18.264 119.8 19.12 118.248 19.12ZM116.976 14.992C117.92 14.832 118.608 14.528 119.04 14.08C119.488 13.632 119.712 13.048 119.712 12.328C119.712 11.608 119.48 11.248 119.016 11.248C118.456 11.248 117.984 11.64 117.6 12.424C117.216 13.192 117.008 14.048 116.976 14.992ZM124.104 19.12C123.752 19.12 123.424 19.08 123.12 19C122.832 18.904 122.656 18.816 122.592 18.736C122.432 18.544 122.352 17.552 122.352 15.76C122.352 13.952 122.552 11.504 122.952 8.416C123.288 5.872 124.072 4.6 125.304 4.6C125.592 4.6 125.8 4.76 125.928 5.08C126.056 5.384 126.12 5.68 126.12 5.968C126.12 8.048 125.488 10.376 124.224 12.952C124.176 14.28 124.152 15.44 124.152 16.432C124.152 17.408 124.24 17.896 124.416 17.896C124.688 17.88 125.064 17.544 125.544 16.888C126.024 16.216 126.496 15.36 126.96 14.32C127.44 13.28 127.728 12.76 127.824 12.76C127.936 12.76 127.992 12.824 127.992 12.952C127.992 13.4 127.76 14.112 127.296 15.088C126.032 17.776 124.968 19.12 124.104 19.12ZM125.52 6.184C125.52 5.672 125.456 5.416 125.328 5.416C124.848 5.416 124.496 7.408 124.272 11.392C125.104 9.2 125.52 7.464 125.52 6.184Z" fill="#AAAAAA"/>
<path d="M4.37917 603.12C3.48317 603.12 2.77117 602.784 2.24317 602.112C1.71517 601.424 1.45117 600.648 1.45117 599.784C1.45117 598.04 1.81917 596.72 2.55517 595.824C3.29117 594.928 4.24317 594.48 5.41117 594.48C5.95517 594.48 6.40317 594.632 6.75517 594.936C7.10717 595.224 7.28317 595.624 7.28317 596.136C7.28317 597.096 6.87517 597.904 6.05917 598.56C5.25917 599.2 4.27517 599.536 3.10717 599.568C3.17117 600.192 3.37917 600.736 3.73117 601.2C4.09917 601.648 4.52317 601.872 5.00317 601.872C5.48317 601.872 5.91517 601.76 6.29917 601.536C6.68317 601.312 7.03517 600.992 7.35517 600.576C8.02717 599.696 8.60317 598.696 9.08317 597.576C9.21117 597.288 9.30717 597.08 9.37117 596.952C9.45117 596.824 9.53117 596.76 9.61117 596.76C9.70717 596.76 9.75517 596.824 9.75517 596.952C9.75517 597.752 9.26717 598.952 8.29117 600.552C7.23517 602.264 5.93117 603.12 4.37917 603.12ZM3.10717 598.992C4.05117 598.832 4.73917 598.528 5.17117 598.08C5.61917 597.632 5.84317 597.048 5.84317 596.328C5.84317 595.608 5.61117 595.248 5.14717 595.248C4.58717 595.248 4.11517 595.64 3.73117 596.424C3.34717 597.192 3.13917 598.048 3.10717 598.992ZM14.0744 597.168L14.2424 596.256C13.5864 596.128 13.2584 595.768 13.2584 595.176C13.2584 594.568 13.6904 594.264 14.5544 594.264C15.3704 590.168 16.3864 588.12 17.6024 588.12C17.8424 588.12 18.0504 588.32 18.2264 588.72C18.4024 589.12 18.4904 589.704 18.4904 590.472C18.4904 591.24 18.3144 592.16 17.9624 593.232C17.6104 594.288 17.1864 595.128 16.6904 595.752L16.7624 595.92C17.2264 596.128 17.6984 596.232 18.1784 596.232C18.6744 596.232 19.0584 596.208 19.3304 596.16C19.6184 596.096 19.7784 596.064 19.8104 596.064C20.0024 596.064 20.0984 596.168 20.0984 596.376C20.0984 596.552 19.9304 596.688 19.5944 596.784C19.2744 596.864 18.8984 596.904 18.4664 596.904C18.0344 596.904 17.5304 596.816 16.9544 596.64C17.4344 597.984 17.6744 599.736 17.6744 601.896C17.6744 604.04 17.4344 605.752 16.9544 607.032C16.4744 608.312 15.8424 608.952 15.0584 608.952C14.6104 608.952 14.2104 608.8 13.8584 608.496C13.5064 608.192 13.3304 607.68 13.3304 606.96C13.3304 604.432 13.5384 601.488 13.9544 598.128C13.4904 598.368 13.0264 598.56 12.5624 598.704C12.8184 599.824 12.9464 600.872 12.9464 601.848C12.9464 602.824 12.9304 603.616 12.8984 604.224C12.8664 604.848 12.7944 605.56 12.6824 606.36C12.5704 607.176 12.4264 607.888 12.2504 608.496C12.0744 609.104 11.8184 609.616 11.4824 610.032C11.1464 610.464 10.7224 610.68 10.2104 610.68C9.71442 610.68 9.29842 610.512 8.96242 610.176C8.64242 609.84 8.48242 609.168 8.48242 608.16C8.48242 605.312 8.64242 602.216 8.96242 598.872C8.05042 598.504 7.59442 597.848 7.59442 596.904C7.59442 596.328 7.74642 595.848 8.05042 595.464C8.33842 595.08 8.70642 594.888 9.15442 594.888C9.28242 594.888 9.37842 594.896 9.44242 594.912C9.66642 593.488 9.87442 592.32 10.0664 591.408C10.2744 590.496 10.6104 589.72 11.0744 589.08C11.5544 588.44 12.0184 588.12 12.4664 588.12C12.9784 588.12 13.2344 588.688 13.2344 589.824C13.2344 591.584 12.5784 593.592 11.2664 595.848C11.6664 596.28 12.0264 596.952 12.3464 597.864C12.8904 597.72 13.4664 597.488 14.0744 597.168ZM10.5224 599.064C10.3624 601.256 10.2824 603.248 10.2824 605.04C10.2824 606.832 10.3064 608.064 10.3544 608.736C10.4024 609.408 10.5144 609.744 10.6904 609.744C11.1704 609.744 11.5624 609.04 11.8664 607.632C12.1704 606.24 12.3224 604.736 12.3224 603.12C12.3224 601.504 12.1544 600.096 11.8184 598.896C11.4344 599.008 11.0024 599.064 10.5224 599.064ZM15.0584 603.6C15.0584 606.544 15.1944 608.016 15.4664 608.016C15.8504 608.016 16.1864 607.448 16.4744 606.312C16.7784 605.176 16.9304 603.888 16.9304 602.448C16.9304 599.408 16.6264 597.456 16.0184 596.592L15.5864 597.024C15.2344 599.712 15.0584 601.904 15.0584 603.6ZM16.4024 595.2C16.6424 594.976 16.9544 594.36 17.3384 593.352C17.7224 592.328 17.9144 591.544 17.9144 591C17.9144 589.96 17.8184 589.44 17.6264 589.44C17.0344 589.44 16.4664 591.168 15.9224 594.624C16.0824 594.752 16.2424 594.944 16.4024 595.2ZM12.7064 590.088C12.7064 589.448 12.6344 589.128 12.4904 589.128C12.2344 589.128 11.9544 589.704 11.6504 590.856C11.3624 592.008 11.0984 593.544 10.8584 595.464C12.0904 593.32 12.7064 591.528 12.7064 590.088ZM9.01042 595.632C8.56242 595.632 8.33842 595.872 8.33842 596.352C8.33842 596.832 8.59442 597.248 9.10642 597.6L9.32242 595.68C9.21042 595.648 9.10642 595.632 9.01042 595.632ZM10.5944 598.056C10.8344 598.056 11.1464 598.04 11.5304 598.008C11.3064 597.416 11.0504 596.96 10.7624 596.64L10.7144 596.736C10.6504 597.312 10.6104 597.752 10.5944 598.056ZM21.5823 603.12C20.6863 603.12 19.9743 602.784 19.4463 602.112C18.9183 601.424 18.6543 600.648 18.6543 599.784C18.6543 598.04 19.0223 596.72 19.7583 595.824C20.4943 594.928 21.4463 594.48 22.6143 594.48C23.1583 594.48 23.6063 594.632 23.9583 594.936C24.3103 595.224 24.4863 595.624 24.4863 596.136C24.4863 597.096 24.0783 597.904 23.2623 598.56C22.4623 599.2 21.4783 599.536 20.3103 599.568C20.3743 600.192 20.5823 600.736 20.9343 601.2C21.3023 601.648 21.7263 601.872 22.2063 601.872C22.6863 601.872 23.1183 601.76 23.5023 601.536C23.8863 601.312 24.2383 600.992 24.5583 600.576C25.2303 599.696 25.8063 598.696 26.2863 597.576C26.4143 597.288 26.5103 597.08 26.5743 596.952C26.6543 596.824 26.7343 596.76 26.8143 596.76C26.9103 596.76 26.9583 596.824 26.9583 596.952C26.9583 597.752 26.4703 598.952 25.4943 600.552C24.4383 602.264 23.1343 603.12 21.5823 603.12ZM20.3103 598.992C21.2543 598.832 21.9423 598.528 22.3743 598.08C22.8223 597.632 23.0463 597.048 23.0463 596.328C23.0463 595.608 22.8143 595.248 22.3503 595.248C21.7903 595.248 21.3183 595.64 20.9343 596.424C20.5503 597.192 20.3423 598.048 20.3103 598.992ZM33.4135 603.84L34.0615 603.768C34.1895 603.768 34.2535 603.832 34.2535 603.96C34.2535 604.184 34.1015 604.352 33.7975 604.464C33.4935 604.576 33.1495 604.632 32.7655 604.632C32.0455 604.632 31.4375 604.344 30.9415 603.768C30.4615 603.192 29.7895 602.128 28.9255 600.576C28.7175 600.24 28.6135 599.984 28.6135 599.808C28.6135 599.568 28.9495 599.288 29.6215 598.968C30.7095 598.408 31.2535 597.704 31.2535 596.856C31.2535 596.616 31.1655 596.416 30.9895 596.256C30.8295 596.08 30.6135 595.992 30.3415 595.992C29.9575 595.992 29.5015 596.448 28.9735 597.36C28.4455 598.256 28.0855 599.104 27.8935 599.904C27.7175 600.688 27.6295 601.536 27.6295 602.448C27.6295 602.896 27.5015 603.12 27.2455 603.12C26.8775 603.12 26.5255 603.072 26.1895 602.976C25.8535 602.864 25.6855 602.728 25.6855 602.568C25.6855 602.392 25.7495 601.632 25.8775 600.288C26.0055 598.928 26.0775 597.952 26.0935 597.36C26.1575 594.096 26.3495 591.6 26.6695 589.872C26.7175 589.728 26.9335 589.48 27.3175 589.128C27.7175 588.776 28.0375 588.6 28.2775 588.6C28.5175 588.6 28.6295 588.904 28.6135 589.512C28.6135 590.104 28.4855 591.384 28.2295 593.352C27.9735 595.32 27.8135 597.12 27.7495 598.752C28.0375 597.728 28.4935 596.76 29.1175 595.848C29.7575 594.936 30.3975 594.48 31.0375 594.48C32.1255 594.48 32.6695 595.008 32.6695 596.064C32.6695 596.768 32.4615 597.408 32.0455 597.984C31.6295 598.544 31.0695 599 30.3655 599.352C30.2215 599.416 30.1495 599.488 30.1495 599.568C30.1495 599.648 30.1735 599.728 30.2215 599.808C31.2295 601.584 32.0855 602.832 32.7895 603.552C32.9815 603.744 33.1895 603.84 33.4135 603.84ZM39.2881 599.088C38.0241 601.776 36.9521 603.12 36.0721 603.12C35.2081 603.12 34.6961 603.016 34.5361 602.808C34.3921 602.6 34.3201 601.912 34.3201 600.744C34.3201 599.576 34.4321 597.888 34.6561 595.68C33.8561 595.52 33.4321 595.192 33.3841 594.696C33.3841 594.44 33.5521 594.312 33.8881 594.312C34.2241 594.312 34.5201 594.376 34.7761 594.504C34.9201 593.352 35.0881 592.184 35.2801 591C35.3281 590.696 35.4801 590.408 35.7361 590.136C35.9921 589.864 36.2401 589.728 36.4801 589.728C36.6881 589.728 36.7921 590.056 36.7921 590.712C36.7921 591.016 36.6801 592.416 36.4561 594.912C36.8881 594.832 37.3601 594.672 37.8721 594.432C38.4001 594.192 38.7121 594.072 38.8081 594.072C39.0961 594.072 39.2401 594.16 39.2401 594.336C39.2561 594.496 38.9601 594.72 38.3521 595.008C37.7441 595.28 37.0881 595.488 36.3841 595.632C36.1921 597.968 36.0961 599.736 36.0961 600.936C36.0961 601.576 36.1921 601.896 36.3841 601.896C36.6721 601.88 37.0561 601.544 37.5361 600.888C38.0161 600.232 38.4881 599.384 38.9521 598.344C39.4321 597.288 39.7201 596.76 39.8161 596.76C39.9281 596.76 39.9841 596.824 39.9841 596.952C39.9841 597.4 39.7521 598.112 39.2881 599.088ZM39.6282 591.264C39.6282 590.976 39.7802 590.728 40.0842 590.52C40.3882 590.312 40.6602 590.208 40.9002 590.208C41.3322 590.208 41.5482 590.456 41.5482 590.952C41.5482 591.448 41.4202 591.88 41.1642 592.248C40.9082 592.6 40.5482 592.776 40.0842 592.776C39.7802 592.776 39.6282 592.272 39.6282 591.264ZM40.3242 603.12C39.7002 603.12 39.2282 602.992 38.9082 602.736C38.7962 602.624 38.7402 602.224 38.7402 601.536C38.7402 600.848 38.7882 599.704 38.8842 598.104C38.9962 596.488 39.0922 595.616 39.1722 595.488C39.2522 595.36 39.5002 595.12 39.9162 594.768C40.3322 594.416 40.6522 594.24 40.8762 594.24C41.1162 594.24 41.2362 594.544 41.2362 595.152C41.2362 595.312 41.1882 595.624 41.0922 596.088C41.0122 596.552 40.9162 596.888 40.8042 597.096C40.5962 597.624 40.4922 599.008 40.4922 601.248C40.4922 601.68 40.5402 601.896 40.6362 601.896C40.9082 601.88 41.2842 601.544 41.7642 600.888C42.2442 600.216 42.7162 599.36 43.1802 598.32C43.6602 597.28 43.9482 596.76 44.0442 596.76C44.1562 596.76 44.2122 596.824 44.2122 596.952C44.2122 597.4 43.9802 598.112 43.5162 599.088C42.2522 601.776 41.1882 603.12 40.3242 603.12ZM45.9355 601.944C46.5115 601.944 47.0155 601.648 47.4475 601.056C47.8795 600.448 48.1995 599.712 48.4075 598.848C47.8315 598.672 47.3915 598.368 47.0875 597.936C46.7835 597.488 46.6315 596.976 46.6315 596.4C46.6315 595.824 46.7755 595.32 47.0635 594.888C47.3675 594.456 47.7995 594.24 48.3595 594.24C48.6955 594.24 48.9515 594.456 49.1275 594.888C49.3035 595.304 49.3915 595.776 49.3915 596.304C49.3915 596.832 49.3515 597.36 49.2715 597.888C49.5115 597.984 49.7675 598.032 50.0395 598.032C50.6635 598.032 51.2635 597.744 51.8395 597.168C52.1275 596.88 52.3195 596.736 52.4155 596.736C52.5275 596.736 52.5835 596.816 52.5835 596.976C52.5835 597.136 52.4795 597.328 52.2715 597.552C51.4235 598.496 50.3515 598.968 49.0555 598.968C48.7515 600.136 48.2795 601.12 47.6395 601.92C46.9995 602.72 46.2155 603.12 45.2875 603.12C44.7435 603.12 44.2955 602.888 43.9435 602.424C43.3515 601.672 43.0555 600.568 43.0555 599.112C43.0555 598.616 43.0955 597.976 43.1755 597.192C43.2555 596.408 43.3435 595.928 43.4395 595.752C43.5515 595.576 43.8075 595.36 44.2075 595.104C44.6235 594.848 44.9115 594.72 45.0715 594.72C45.3115 594.72 45.4315 594.864 45.4315 595.152C45.4315 595.968 45.2235 596.856 44.8075 597.816C44.8075 598.952 44.8955 599.928 45.0715 600.744C45.2635 601.544 45.5515 601.944 45.9355 601.944ZM48.1195 595.152C47.9915 595.152 47.9275 595.416 47.9275 595.944C47.9275 596.472 48.1675 596.976 48.6475 597.456C48.6795 597.264 48.6955 597.072 48.6955 596.88C48.6955 595.728 48.5035 595.152 48.1195 595.152Z" fill="#AAAAAA"/>
<path d="M83.6646 167.422C84.2167 167.437 84.6515 167.897 84.6359 168.449C84.6202 169.002 84.16 169.436 83.608 169.421L83.6646 167.422ZM79.6511 45.902L79.4819 44.9164C79.8121 44.8597 80.1487 44.9722 80.3786 45.2159C80.6085 45.4596 80.701 45.8022 80.6251 46.1285L79.6511 45.902ZM71.8334 48.2585C71.2891 48.3519 70.7721 47.9864 70.6787 47.4421C70.5852 46.8978 70.9508 46.3808 71.4951 46.2873L71.8334 48.2585ZM78.7328 54.2646C78.6077 54.8025 78.0702 55.1372 77.5323 55.0121C76.9944 54.8869 76.6597 54.3495 76.7848 53.8115L78.7328 54.2646ZM83.608 169.421C73.704 169.14 52.0595 161.92 43.6932 135.508L45.5998 134.904C53.6552 160.334 74.4178 167.16 83.6646 167.422L83.608 169.421ZM43.6932 135.508C39.4782 122.202 42.9692 104.221 50.0887 87.3781C57.2222 70.5024 68.1059 54.5147 78.999 45.1439L80.3033 46.6601C69.7033 55.7787 58.9791 71.4829 51.9309 88.1568C44.8687 104.864 41.6038 122.29 45.5998 134.904L43.6932 135.508ZM79.8203 46.8876L71.8334 48.2585L71.4951 46.2873L79.4819 44.9164L79.8203 46.8876ZM80.6251 46.1285L78.7328 54.2646L76.7848 53.8115L78.6771 45.6755L80.6251 46.1285Z" fill="#AAAAAA"/>
<path d="M330 606C330 621.445 339.716 635.516 370.202 640.321C400.689 645.126 432.599 623.161 446 614.151M446 614.151H440.975M446 614.151L443.487 618.441" stroke="#AAAAAA" stroke-width="2" stroke-linecap="round" stroke-linejoin="round"/>
<path d="M67 419C-19.2701 439.467 2.06513 554.861 6.72837 564M6.72837 564L7.50572 557.435M6.72837 564L1.67667 559.752" stroke="#AAAAAA" stroke-width="2" stroke-linecap="round" stroke-linejoin="round"/>
<rect x="231" y="126" width="33" height="3" rx="1.5" fill="#FCE5D9"/>
<rect x="272" y="126" width="3" height="3" rx="1.5" fill="#FCE5D9"/>
<circle cx="376" cy="246" r="98" fill="#FCE5D9"/>
<path d="M332.77 223H330.685V212.363H332.77V223Z" fill="#CF5C36"/>
<path d="M339.817 223L339.414 221.961H339.359C339.008 222.403 338.646 222.711 338.272 222.884C337.903 223.052 337.42 223.137 336.823 223.137C336.09 223.137 335.511 222.927 335.087 222.508C334.668 222.089 334.458 221.492 334.458 220.717C334.458 219.906 334.741 219.309 335.306 218.926C335.875 218.538 336.732 218.324 337.876 218.283L339.202 218.242V217.907C339.202 217.132 338.806 216.745 338.013 216.745C337.402 216.745 336.684 216.93 335.859 217.299L335.169 215.891C336.049 215.43 337.024 215.2 338.095 215.2C339.12 215.2 339.906 215.424 340.453 215.87C341 216.317 341.273 216.996 341.273 217.907V223H339.817ZM339.202 219.459L338.396 219.486C337.789 219.505 337.338 219.614 337.042 219.814C336.746 220.015 336.598 220.32 336.598 220.73C336.598 221.318 336.935 221.612 337.609 221.612C338.092 221.612 338.478 221.473 338.765 221.195C339.056 220.917 339.202 220.548 339.202 220.088V219.459Z" fill="#CF5C36"/>
<path d="M345.847 223.137C344.949 223.137 344.243 222.788 343.728 222.091C343.217 221.394 342.962 220.427 342.962 219.192C342.962 217.939 343.222 216.964 343.741 216.267C344.265 215.565 344.985 215.214 345.901 215.214C346.863 215.214 347.597 215.588 348.103 216.335H348.171C348.066 215.765 348.014 215.257 348.014 214.811V212.363H350.105V223H348.506L348.103 222.009H348.014C347.54 222.761 346.817 223.137 345.847 223.137ZM346.578 221.476C347.111 221.476 347.501 221.321 347.747 221.011C347.998 220.701 348.134 220.174 348.157 219.432V219.206C348.157 218.386 348.03 217.798 347.774 217.442C347.524 217.087 347.114 216.909 346.544 216.909C346.079 216.909 345.717 217.107 345.457 217.504C345.202 217.896 345.074 218.468 345.074 219.22C345.074 219.972 345.204 220.537 345.464 220.915C345.724 221.289 346.095 221.476 346.578 221.476Z" fill="#CF5C36"/>
<path d="M354.706 223.137C353.808 223.137 353.102 222.788 352.587 222.091C352.076 221.394 351.821 220.427 351.821 219.192C351.821 217.939 352.081 216.964 352.601 216.267C353.125 215.565 353.845 215.214 354.761 215.214C355.722 215.214 356.456 215.588 356.962 216.335H357.03C356.925 215.765 356.873 215.257 356.873 214.811V212.363H358.965V223H357.365L356.962 222.009H356.873C356.399 222.761 355.677 223.137 354.706 223.137ZM355.438 221.476C355.971 221.476 356.36 221.321 356.606 221.011C356.857 220.701 356.994 220.174 357.017 219.432V219.206C357.017 218.386 356.889 217.798 356.634 217.442C356.383 217.087 355.973 216.909 355.403 216.909C354.938 216.909 354.576 217.107 354.316 217.504C354.061 217.896 353.934 218.468 353.934 219.22C353.934 219.972 354.063 220.537 354.323 220.915C354.583 221.289 354.954 221.476 355.438 221.476Z" fill="#CF5C36"/>
<path d="M365.999 223L365.596 221.961H365.541C365.19 222.403 364.828 222.711 364.454 222.884C364.085 223.052 363.602 223.137 363.005 223.137C362.271 223.137 361.692 222.927 361.269 222.508C360.849 222.089 360.64 221.492 360.64 220.717C360.64 219.906 360.922 219.309 361.487 218.926C362.057 218.538 362.914 218.324 364.058 218.283L365.384 218.242V217.907C365.384 217.132 364.987 216.745 364.194 216.745C363.584 216.745 362.866 216.93 362.041 217.299L361.351 215.891C362.23 215.43 363.205 215.2 364.276 215.2C365.302 215.2 366.088 215.424 366.635 215.87C367.182 216.317 367.455 216.996 367.455 217.907V223H365.999ZM365.384 219.459L364.577 219.486C363.971 219.505 363.52 219.614 363.224 219.814C362.927 220.015 362.779 220.32 362.779 220.73C362.779 221.318 363.117 221.612 363.791 221.612C364.274 221.612 364.659 221.473 364.946 221.195C365.238 220.917 365.384 220.548 365.384 220.088V219.459Z" fill="#CF5C36"/>
<path d="M380.3 223H378.215V218.536C378.215 217.985 378.117 217.572 377.921 217.299C377.725 217.021 377.413 216.882 376.984 216.882C376.401 216.882 375.979 217.078 375.72 217.47C375.46 217.857 375.33 218.502 375.33 219.404V223H373.245V215.357H374.838L375.118 216.335H375.234C375.467 215.966 375.786 215.688 376.191 215.501C376.602 215.31 377.066 215.214 377.586 215.214C378.475 215.214 379.149 215.455 379.609 215.938C380.07 216.417 380.3 217.11 380.3 218.017V223Z" fill="#CF5C36"/>
<path d="M385.611 216.697C385.169 216.697 384.823 216.839 384.572 217.121C384.322 217.399 384.178 217.796 384.142 218.311H387.067C387.058 217.796 386.924 217.399 386.664 217.121C386.404 216.839 386.053 216.697 385.611 216.697ZM385.905 223.137C384.675 223.137 383.713 222.797 383.021 222.118C382.328 221.439 381.981 220.478 381.981 219.233C381.981 217.953 382.3 216.964 382.938 216.267C383.581 215.565 384.467 215.214 385.598 215.214C386.678 215.214 387.519 215.521 388.12 216.137C388.722 216.752 389.022 217.602 389.022 218.687V219.698H384.094C384.117 220.291 384.292 220.753 384.62 221.086C384.948 221.419 385.409 221.585 386.001 221.585C386.461 221.585 386.896 221.537 387.307 221.441C387.717 221.346 388.145 221.193 388.592 220.983V222.597C388.227 222.779 387.838 222.913 387.423 223C387.008 223.091 386.502 223.137 385.905 223.137Z" fill="#CF5C36"/>
<path d="M394.983 215.214C395.266 215.214 395.501 215.234 395.688 215.275L395.53 217.23C395.362 217.185 395.157 217.162 394.915 217.162C394.25 217.162 393.73 217.333 393.356 217.675C392.987 218.017 392.803 218.495 392.803 219.11V223H390.718V215.357H392.297L392.604 216.643H392.707C392.944 216.214 393.263 215.87 393.664 215.61C394.07 215.346 394.509 215.214 394.983 215.214Z" fill="#CF5C36"/>
<path d="M402.53 223L399.618 215.357H401.799L403.275 219.712C403.439 220.263 403.542 220.785 403.583 221.277H403.624C403.647 220.84 403.749 220.318 403.932 219.712L405.401 215.357H407.582L404.67 223H402.53Z" fill="#CF5C36"/>
<path d="M413.536 223L413.133 221.961H413.078C412.727 222.403 412.365 222.711 411.991 222.884C411.622 223.052 411.139 223.137 410.542 223.137C409.808 223.137 409.229 222.927 408.806 222.508C408.386 222.089 408.177 221.492 408.177 220.717C408.177 219.906 408.459 219.309 409.024 218.926C409.594 218.538 410.451 218.324 411.595 218.283L412.921 218.242V217.907C412.921 217.132 412.524 216.745 411.731 216.745C411.121 216.745 410.403 216.93 409.578 217.299L408.888 215.891C409.767 215.43 410.743 215.2 411.813 215.2C412.839 215.2 413.625 215.424 414.172 215.87C414.719 216.317 414.992 216.996 414.992 217.907V223H413.536ZM412.921 219.459L412.114 219.486C411.508 219.505 411.057 219.614 410.761 219.814C410.465 220.015 410.316 220.32 410.316 220.73C410.316 221.318 410.654 221.612 411.328 221.612C411.811 221.612 412.196 221.473 412.483 221.195C412.775 220.917 412.921 220.548 412.921 220.088V219.459ZM413.625 212.89C413.625 213.382 413.463 213.778 413.14 214.079C412.816 214.38 412.399 214.53 411.889 214.53C411.378 214.53 410.968 214.384 410.658 214.093C410.348 213.801 410.193 213.405 410.193 212.903C410.193 212.411 410.346 212.019 410.651 211.728C410.961 211.431 411.374 211.283 411.889 211.283C412.39 211.283 412.805 211.434 413.133 211.734C413.461 212.035 413.625 212.42 413.625 212.89ZM412.545 212.903C412.545 212.698 412.483 212.539 412.36 212.425C412.237 212.306 412.08 212.247 411.889 212.247C411.697 212.247 411.54 212.306 411.417 212.425C411.294 212.539 411.232 212.698 411.232 212.903C411.232 213.108 411.287 213.27 411.396 213.389C411.506 213.507 411.67 213.566 411.889 213.566C412.08 213.566 412.237 213.507 412.36 213.389C412.483 213.27 412.545 213.108 412.545 212.903Z" fill="#CF5C36"/>
<path d="M421.411 215.214C421.694 215.214 421.928 215.234 422.115 215.275L421.958 217.23C421.789 217.185 421.584 217.162 421.343 217.162C420.677 217.162 420.158 217.333 419.784 217.675C419.415 218.017 419.23 218.495 419.23 219.11V223H417.146V215.357H418.725L419.032 216.643H419.135C419.372 216.214 419.691 215.87 420.092 215.61C420.497 215.346 420.937 215.214 421.411 215.214Z" fill="#CF5C36"/>
<path d="M334.369 242L333.966 240.961H333.911C333.56 241.403 333.198 241.711 332.824 241.884C332.455 242.052 331.972 242.137 331.375 242.137C330.641 242.137 330.062 241.927 329.639 241.508C329.219 241.089 329.01 240.492 329.01 239.717C329.01 238.906 329.292 238.309 329.857 237.926C330.427 237.538 331.284 237.324 332.428 237.283L333.754 237.242V236.907C333.754 236.132 333.357 235.745 332.564 235.745C331.954 235.745 331.236 235.93 330.411 236.299L329.721 234.891C330.6 234.43 331.576 234.2 332.646 234.2C333.672 234.2 334.458 234.424 335.005 234.87C335.552 235.317 335.825 235.996 335.825 236.907V242H334.369ZM333.754 238.459L332.947 238.486C332.341 238.505 331.89 238.614 331.594 238.814C331.298 239.015 331.149 239.32 331.149 239.73C331.149 240.318 331.487 240.612 332.161 240.612C332.644 240.612 333.029 240.473 333.316 240.195C333.608 239.917 333.754 239.548 333.754 239.088V238.459Z" fill="#CF5C36"/>
<path d="M342.176 242.137C341.278 242.137 340.574 241.811 340.063 241.159H339.954C340.027 241.797 340.063 242.166 340.063 242.267V245.363H337.979V234.357H339.674L339.968 235.349H340.063C340.551 234.592 341.273 234.214 342.23 234.214C343.133 234.214 343.839 234.562 344.35 235.26C344.86 235.957 345.115 236.925 345.115 238.165C345.115 238.981 344.994 239.689 344.753 240.291C344.516 240.893 344.176 241.351 343.734 241.665C343.292 241.979 342.773 242.137 342.176 242.137ZM341.561 235.882C341.046 235.882 340.67 236.041 340.433 236.36C340.196 236.675 340.073 237.197 340.063 237.926V238.151C340.063 238.972 340.184 239.56 340.426 239.915C340.672 240.271 341.059 240.448 341.588 240.448C342.522 240.448 342.989 239.678 342.989 238.138C342.989 237.386 342.873 236.823 342.641 236.449C342.413 236.071 342.053 235.882 341.561 235.882Z" fill="#CF5C36"/>
<path d="M351.035 242.137C350.137 242.137 349.433 241.811 348.923 241.159H348.813C348.886 241.797 348.923 242.166 348.923 242.267V245.363H346.838V234.357H348.533L348.827 235.349H348.923C349.41 234.592 350.133 234.214 351.09 234.214C351.992 234.214 352.699 234.562 353.209 235.26C353.719 235.957 353.975 236.925 353.975 238.165C353.975 238.981 353.854 239.689 353.612 240.291C353.375 240.893 353.036 241.351 352.594 241.665C352.152 241.979 351.632 242.137 351.035 242.137ZM350.42 235.882C349.905 235.882 349.529 236.041 349.292 236.36C349.055 236.675 348.932 237.197 348.923 237.926V238.151C348.923 238.972 349.044 239.56 349.285 239.915C349.531 240.271 349.919 240.448 350.447 240.448C351.382 240.448 351.849 239.678 351.849 238.138C351.849 237.386 351.732 236.823 351.5 236.449C351.272 236.071 350.912 235.882 350.42 235.882Z" fill="#CF5C36"/>
<path d="M360.995 238.165C360.995 238.922 361.118 239.493 361.364 239.881C361.615 240.268 362.021 240.462 362.581 240.462C363.137 240.462 363.536 240.271 363.777 239.888C364.023 239.5 364.146 238.926 364.146 238.165C364.146 237.409 364.023 236.841 363.777 236.463C363.531 236.085 363.128 235.896 362.567 235.896C362.011 235.896 361.61 236.085 361.364 236.463C361.118 236.837 360.995 237.404 360.995 238.165ZM366.279 238.165C366.279 239.409 365.951 240.382 365.295 241.084C364.639 241.786 363.725 242.137 362.554 242.137C361.82 242.137 361.173 241.977 360.612 241.658C360.052 241.335 359.621 240.872 359.32 240.271C359.02 239.669 358.869 238.967 358.869 238.165C358.869 236.916 359.195 235.946 359.847 235.253C360.498 234.56 361.414 234.214 362.595 234.214C363.328 234.214 363.976 234.373 364.536 234.692C365.097 235.011 365.527 235.469 365.828 236.066C366.129 236.663 366.279 237.363 366.279 238.165Z" fill="#CF5C36"/>
<path d="M371.105 242.137C368.727 242.137 367.537 240.831 367.537 238.22C367.537 236.921 367.861 235.93 368.508 235.246C369.155 234.558 370.082 234.214 371.29 234.214C372.174 234.214 372.967 234.387 373.669 234.733L373.054 236.347C372.726 236.215 372.42 236.107 372.138 236.025C371.855 235.939 371.573 235.896 371.29 235.896C370.205 235.896 369.663 236.666 369.663 238.206C369.663 239.701 370.205 240.448 371.29 240.448C371.691 240.448 372.062 240.396 372.404 240.291C372.746 240.182 373.088 240.013 373.43 239.785V241.569C373.092 241.784 372.751 241.932 372.404 242.014C372.062 242.096 371.63 242.137 371.105 242.137Z" fill="#CF5C36"/>
<path d="M382.262 242H380.177V237.536C380.177 236.433 379.767 235.882 378.946 235.882C378.363 235.882 377.941 236.08 377.682 236.477C377.422 236.873 377.292 237.516 377.292 238.404V242H375.207V231.363H377.292V233.53C377.292 233.699 377.276 234.095 377.244 234.72L377.196 235.335H377.306C377.771 234.588 378.509 234.214 379.521 234.214C380.418 234.214 381.1 234.455 381.564 234.938C382.029 235.422 382.262 236.114 382.262 237.017V242Z" fill="#CF5C36"/>
<path d="M392.297 234.214C393.199 234.214 393.906 234.567 394.416 235.273C394.926 235.975 395.182 236.939 395.182 238.165C395.182 239.427 394.917 240.405 394.389 241.098C393.865 241.79 393.149 242.137 392.242 242.137C391.344 242.137 390.64 241.811 390.13 241.159H389.986L389.638 242H388.045V231.363H390.13V233.838C390.13 234.152 390.103 234.656 390.048 235.349H390.13C390.618 234.592 391.34 234.214 392.297 234.214ZM391.627 235.882C391.112 235.882 390.736 236.041 390.499 236.36C390.262 236.675 390.139 237.197 390.13 237.926V238.151C390.13 238.972 390.251 239.56 390.492 239.915C390.738 240.271 391.126 240.448 391.654 240.448C392.083 240.448 392.422 240.252 392.673 239.86C392.928 239.464 393.056 238.89 393.056 238.138C393.056 237.386 392.928 236.823 392.673 236.449C392.418 236.071 392.069 235.882 391.627 235.882Z" fill="#CF5C36"/>
<path d="M398.565 238.165C398.565 238.922 398.688 239.493 398.935 239.881C399.185 240.268 399.591 240.462 400.151 240.462C400.707 240.462 401.106 240.271 401.348 239.888C401.594 239.5 401.717 238.926 401.717 238.165C401.717 237.409 401.594 236.841 401.348 236.463C401.102 236.085 400.698 235.896 400.138 235.896C399.582 235.896 399.181 236.085 398.935 236.463C398.688 236.837 398.565 237.404 398.565 238.165ZM403.85 238.165C403.85 239.409 403.521 240.382 402.865 241.084C402.209 241.786 401.295 242.137 400.124 242.137C399.39 242.137 398.743 241.977 398.183 241.658C397.622 241.335 397.191 240.872 396.891 240.271C396.59 239.669 396.439 238.967 396.439 238.165C396.439 236.916 396.765 235.946 397.417 235.253C398.069 234.56 398.985 234.214 400.165 234.214C400.899 234.214 401.546 234.373 402.106 234.692C402.667 235.011 403.098 235.469 403.398 236.066C403.699 236.663 403.85 237.363 403.85 238.165ZM397.8 232.396C397.8 232.099 397.884 231.871 398.053 231.712C398.226 231.552 398.458 231.473 398.75 231.473C399.051 231.473 399.285 231.557 399.454 231.726C399.627 231.894 399.714 232.118 399.714 232.396C399.714 232.669 399.627 232.89 399.454 233.059C399.281 233.223 399.046 233.305 398.75 233.305C398.458 233.305 398.226 233.225 398.053 233.065C397.884 232.906 397.8 232.683 397.8 232.396ZM400.555 232.396C400.555 232.076 400.646 231.844 400.828 231.698C401.015 231.548 401.245 231.473 401.519 231.473C401.815 231.473 402.049 231.555 402.223 231.719C402.4 231.883 402.489 232.108 402.489 232.396C402.489 232.674 402.4 232.895 402.223 233.059C402.045 233.223 401.81 233.305 401.519 233.305C401.245 233.305 401.015 233.232 400.828 233.086C400.646 232.936 400.555 232.705 400.555 232.396Z" fill="#CF5C36"/>
<path d="M409.838 234.214C410.12 234.214 410.355 234.234 410.542 234.275L410.385 236.23C410.216 236.185 410.011 236.162 409.77 236.162C409.104 236.162 408.585 236.333 408.211 236.675C407.842 237.017 407.657 237.495 407.657 238.11V242H405.572V234.357H407.151L407.459 235.643H407.562C407.799 235.214 408.118 234.87 408.519 234.61C408.924 234.346 409.364 234.214 409.838 234.214Z" fill="#CF5C36"/>
<path d="M411.314 245.363C410.781 245.363 410.323 245.306 409.94 245.192V243.552C410.259 243.638 410.585 243.682 410.918 243.682C411.269 243.682 411.524 243.584 411.684 243.388C411.848 243.192 411.93 242.902 411.93 242.52V234.357H414.015V242.827C414.015 243.638 413.78 244.263 413.311 244.7C412.841 245.142 412.176 245.363 411.314 245.363ZM411.841 232.382C411.841 231.703 412.219 231.363 412.976 231.363C413.732 231.363 414.11 231.703 414.11 232.382C414.11 232.705 414.015 232.958 413.823 233.141C413.636 233.318 413.354 233.407 412.976 233.407C412.219 233.407 411.841 233.065 411.841 232.382Z" fill="#CF5C36"/>
<path d="M421.062 242L420.659 240.961H420.604C420.254 241.403 419.891 241.711 419.518 241.884C419.148 242.052 418.665 242.137 418.068 242.137C417.335 242.137 416.756 241.927 416.332 241.508C415.913 241.089 415.703 240.492 415.703 239.717C415.703 238.906 415.986 238.309 416.551 237.926C417.12 237.538 417.977 237.324 419.121 237.283L420.447 237.242V236.907C420.447 236.132 420.051 235.745 419.258 235.745C418.647 235.745 417.929 235.93 417.104 236.299L416.414 234.891C417.294 234.43 418.269 234.2 419.34 234.2C420.365 234.2 421.151 234.424 421.698 234.87C422.245 235.317 422.519 235.996 422.519 236.907V242H421.062ZM420.447 238.459L419.641 238.486C419.035 238.505 418.583 238.614 418.287 238.814C417.991 239.015 417.843 239.32 417.843 239.73C417.843 240.318 418.18 240.612 418.854 240.612C419.338 240.612 419.723 240.473 420.01 240.195C420.301 239.917 420.447 239.548 420.447 239.088V238.459Z" fill="#CF5C36"/>
<path d="M327.547 256.844L328.456 255.682L330.596 253.357H332.947L329.912 256.673L333.132 261H330.726L328.524 257.903L327.629 258.621V261H325.544V250.363H327.629V255.107L327.52 256.844H327.547Z" fill="#CF5C36"/>
<path d="M335.887 257.165C335.887 257.922 336.01 258.493 336.256 258.881C336.507 259.268 336.912 259.462 337.473 259.462C338.029 259.462 338.427 259.271 338.669 258.888C338.915 258.5 339.038 257.926 339.038 257.165C339.038 256.409 338.915 255.841 338.669 255.463C338.423 255.085 338.02 254.896 337.459 254.896C336.903 254.896 336.502 255.085 336.256 255.463C336.01 255.837 335.887 256.404 335.887 257.165ZM341.171 257.165C341.171 258.409 340.843 259.382 340.187 260.084C339.53 260.786 338.617 261.137 337.445 261.137C336.712 261.137 336.064 260.977 335.504 260.658C334.943 260.335 334.513 259.872 334.212 259.271C333.911 258.669 333.761 257.967 333.761 257.165C333.761 255.916 334.087 254.946 334.738 254.253C335.39 253.56 336.306 253.214 337.486 253.214C338.22 253.214 338.867 253.373 339.428 253.692C339.988 254.011 340.419 254.469 340.72 255.066C341.021 255.663 341.171 256.363 341.171 257.165ZM335.121 251.396C335.121 251.099 335.205 250.871 335.374 250.712C335.547 250.552 335.78 250.473 336.071 250.473C336.372 250.473 336.607 250.557 336.775 250.726C336.949 250.894 337.035 251.118 337.035 251.396C337.035 251.669 336.949 251.89 336.775 252.059C336.602 252.223 336.368 252.305 336.071 252.305C335.78 252.305 335.547 252.225 335.374 252.065C335.205 251.906 335.121 251.683 335.121 251.396ZM337.876 251.396C337.876 251.076 337.967 250.844 338.149 250.698C338.336 250.548 338.566 250.473 338.84 250.473C339.136 250.473 339.371 250.555 339.544 250.719C339.722 250.883 339.811 251.108 339.811 251.396C339.811 251.674 339.722 251.895 339.544 252.059C339.366 252.223 339.132 252.305 338.84 252.305C338.566 252.305 338.336 252.232 338.149 252.086C337.967 251.936 337.876 251.705 337.876 251.396Z" fill="#CF5C36"/>
<path d="M347.091 261.137C346.193 261.137 345.489 260.811 344.979 260.159H344.869C344.942 260.797 344.979 261.166 344.979 261.267V264.363H342.894V253.357H344.589L344.883 254.349H344.979C345.466 253.592 346.188 253.214 347.146 253.214C348.048 253.214 348.754 253.562 349.265 254.26C349.775 254.957 350.03 255.925 350.03 257.165C350.03 257.981 349.91 258.689 349.668 259.291C349.431 259.893 349.091 260.351 348.649 260.665C348.207 260.979 347.688 261.137 347.091 261.137ZM346.476 254.882C345.961 254.882 345.585 255.041 345.348 255.36C345.111 255.675 344.988 256.197 344.979 256.926V257.151C344.979 257.972 345.099 258.56 345.341 258.915C345.587 259.271 345.974 259.448 346.503 259.448C347.437 259.448 347.904 258.678 347.904 257.138C347.904 256.386 347.788 255.823 347.556 255.449C347.328 255.071 346.968 254.882 346.476 254.882Z" fill="#CF5C36"/>
<path d="M356.606 261L356.203 259.961H356.148C355.798 260.403 355.435 260.711 355.062 260.884C354.692 261.052 354.209 261.137 353.612 261.137C352.879 261.137 352.3 260.927 351.876 260.508C351.457 260.089 351.247 259.492 351.247 258.717C351.247 257.906 351.53 257.309 352.095 256.926C352.664 256.538 353.521 256.324 354.665 256.283L355.991 256.242V255.907C355.991 255.132 355.595 254.745 354.802 254.745C354.191 254.745 353.473 254.93 352.648 255.299L351.958 253.891C352.838 253.43 353.813 253.2 354.884 253.2C355.909 253.2 356.695 253.424 357.242 253.87C357.789 254.317 358.062 254.996 358.062 255.907V261H356.606ZM355.991 257.459L355.185 257.486C354.578 257.505 354.127 257.614 353.831 257.814C353.535 258.015 353.387 258.32 353.387 258.73C353.387 259.318 353.724 259.612 354.398 259.612C354.882 259.612 355.267 259.473 355.554 259.195C355.845 258.917 355.991 258.548 355.991 258.088V257.459Z" fill="#CF5C36"/>
<path d="M365.514 257.165C365.514 257.922 365.637 258.493 365.883 258.881C366.133 259.268 366.539 259.462 367.1 259.462C367.656 259.462 368.054 259.271 368.296 258.888C368.542 258.5 368.665 257.926 368.665 257.165C368.665 256.409 368.542 255.841 368.296 255.463C368.05 255.085 367.646 254.896 367.086 254.896C366.53 254.896 366.129 255.085 365.883 255.463C365.637 255.837 365.514 256.404 365.514 257.165ZM370.798 257.165C370.798 258.409 370.47 259.382 369.813 260.084C369.157 260.786 368.243 261.137 367.072 261.137C366.339 261.137 365.691 260.977 365.131 260.658C364.57 260.335 364.14 259.872 363.839 259.271C363.538 258.669 363.388 257.967 363.388 257.165C363.388 255.916 363.714 254.946 364.365 254.253C365.017 253.56 365.933 253.214 367.113 253.214C367.847 253.214 368.494 253.373 369.055 253.692C369.615 254.011 370.046 254.469 370.347 255.066C370.647 255.663 370.798 256.363 370.798 257.165Z" fill="#CF5C36"/>
<path d="M375.624 261.137C373.245 261.137 372.056 259.831 372.056 257.22C372.056 255.921 372.379 254.93 373.026 254.246C373.674 253.558 374.601 253.214 375.809 253.214C376.693 253.214 377.486 253.387 378.188 253.733L377.572 255.347C377.244 255.215 376.939 255.107 376.656 255.025C376.374 254.939 376.091 254.896 375.809 254.896C374.724 254.896 374.182 255.666 374.182 257.206C374.182 258.701 374.724 259.448 375.809 259.448C376.21 259.448 376.581 259.396 376.923 259.291C377.265 259.182 377.606 259.013 377.948 258.785V260.569C377.611 260.784 377.269 260.932 376.923 261.014C376.581 261.096 376.148 261.137 375.624 261.137Z" fill="#CF5C36"/>
<path d="M386.78 261H384.695V256.536C384.695 255.433 384.285 254.882 383.465 254.882C382.882 254.882 382.46 255.08 382.2 255.477C381.94 255.873 381.811 256.516 381.811 257.404V261H379.726V250.363H381.811V252.53C381.811 252.699 381.795 253.095 381.763 253.72L381.715 254.335H381.824C382.289 253.588 383.027 253.214 384.039 253.214C384.937 253.214 385.618 253.455 386.083 253.938C386.548 254.422 386.78 255.114 386.78 256.017V261Z" fill="#CF5C36"/>
<path d="M397.896 258.73C397.896 259.514 397.622 260.111 397.075 260.521C396.533 260.932 395.719 261.137 394.635 261.137C394.079 261.137 393.605 261.098 393.213 261.021C392.821 260.948 392.454 260.838 392.112 260.692V258.97C392.5 259.152 392.935 259.305 393.418 259.428C393.906 259.551 394.334 259.612 394.703 259.612C395.46 259.612 395.838 259.394 395.838 258.956C395.838 258.792 395.788 258.66 395.688 258.56C395.587 258.455 395.414 258.339 395.168 258.211C394.922 258.079 394.594 257.926 394.184 257.753C393.596 257.507 393.163 257.279 392.885 257.069C392.611 256.86 392.411 256.62 392.283 256.352C392.16 256.078 392.099 255.743 392.099 255.347C392.099 254.668 392.361 254.144 392.885 253.774C393.413 253.401 394.161 253.214 395.127 253.214C396.048 253.214 396.943 253.414 397.813 253.815L397.185 255.319C396.802 255.155 396.444 255.021 396.111 254.916C395.779 254.811 395.439 254.759 395.093 254.759C394.478 254.759 394.17 254.925 394.17 255.258C394.17 255.445 394.268 255.606 394.464 255.743C394.664 255.88 395.1 256.083 395.77 256.352C396.367 256.593 396.804 256.819 397.082 257.028C397.36 257.238 397.565 257.479 397.697 257.753C397.829 258.026 397.896 258.352 397.896 258.73Z" fill="#CF5C36"/>
<path d="M404.376 261L403.973 259.961H403.918C403.567 260.403 403.205 260.711 402.831 260.884C402.462 261.052 401.979 261.137 401.382 261.137C400.648 261.137 400.069 260.927 399.646 260.508C399.226 260.089 399.017 259.492 399.017 258.717C399.017 257.906 399.299 257.309 399.864 256.926C400.434 256.538 401.291 256.324 402.435 256.283L403.761 256.242V255.907C403.761 255.132 403.364 254.745 402.571 254.745C401.961 254.745 401.243 254.93 400.418 255.299L399.728 253.891C400.607 253.43 401.582 253.2 402.653 253.2C403.679 253.2 404.465 253.424 405.012 253.87C405.559 254.317 405.832 254.996 405.832 255.907V261H404.376ZM403.761 257.459L402.954 257.486C402.348 257.505 401.897 257.614 401.601 257.814C401.304 258.015 401.156 258.32 401.156 258.73C401.156 259.318 401.493 259.612 402.168 259.612C402.651 259.612 403.036 259.473 403.323 259.195C403.615 258.917 403.761 258.548 403.761 258.088V257.459ZM400.377 251.396C400.377 251.099 400.461 250.871 400.63 250.712C400.803 250.552 401.035 250.473 401.327 250.473C401.628 250.473 401.863 250.557 402.031 250.726C402.204 250.894 402.291 251.118 402.291 251.396C402.291 251.669 402.204 251.89 402.031 252.059C401.858 252.223 401.623 252.305 401.327 252.305C401.035 252.305 400.803 252.225 400.63 252.065C400.461 251.906 400.377 251.683 400.377 251.396ZM403.132 251.396C403.132 251.076 403.223 250.844 403.405 250.698C403.592 250.548 403.822 250.473 404.096 250.473C404.392 250.473 404.627 250.555 404.8 250.719C404.978 250.883 405.066 251.108 405.066 251.396C405.066 251.674 404.978 251.895 404.8 252.059C404.622 252.223 404.387 252.305 404.096 252.305C403.822 252.305 403.592 252.232 403.405 252.086C403.223 251.936 403.132 251.705 403.132 251.396Z" fill="#CF5C36"/>
<path d="M410.07 261H407.985V250.363H410.07V261Z" fill="#CF5C36"/>
<path d="M411.649 264.363C411.116 264.363 410.658 264.306 410.275 264.192V262.552C410.594 262.638 410.92 262.682 411.253 262.682C411.604 262.682 411.859 262.584 412.019 262.388C412.183 262.192 412.265 261.902 412.265 261.52V253.357H414.35V261.827C414.35 262.638 414.115 263.263 413.646 263.7C413.176 264.142 412.511 264.363 411.649 264.363ZM412.176 251.382C412.176 250.703 412.554 250.363 413.311 250.363C414.067 250.363 414.445 250.703 414.445 251.382C414.445 251.705 414.35 251.958 414.158 252.141C413.971 252.318 413.689 252.407 413.311 252.407C412.554 252.407 412.176 252.065 412.176 251.382Z" fill="#CF5C36"/>
<path d="M421.397 261L420.994 259.961H420.939C420.589 260.403 420.226 260.711 419.853 260.884C419.483 261.052 419 261.137 418.403 261.137C417.67 261.137 417.091 260.927 416.667 260.508C416.248 260.089 416.038 259.492 416.038 258.717C416.038 257.906 416.321 257.309 416.886 256.926C417.455 256.538 418.312 256.324 419.456 256.283L420.782 256.242V255.907C420.782 255.132 420.386 254.745 419.593 254.745C418.982 254.745 418.264 254.93 417.439 255.299L416.749 253.891C417.629 253.43 418.604 253.2 419.675 253.2C420.7 253.2 421.486 253.424 422.033 253.87C422.58 254.317 422.854 254.996 422.854 255.907V261H421.397ZM420.782 257.459L419.976 257.486C419.369 257.505 418.918 257.614 418.622 257.814C418.326 258.015 418.178 258.32 418.178 258.73C418.178 259.318 418.515 259.612 419.189 259.612C419.673 259.612 420.058 259.473 420.345 259.195C420.636 258.917 420.782 258.548 420.782 258.088V257.459Z" fill="#CF5C36"/>
<path d="M356.798 274.907C356.798 276.552 356.328 277.812 355.39 278.688C354.455 279.562 353.104 280 351.336 280H348.506V270.006H351.644C353.275 270.006 354.542 270.437 355.444 271.298C356.347 272.159 356.798 273.362 356.798 274.907ZM354.597 274.962C354.597 272.815 353.649 271.742 351.753 271.742H350.625V278.25H351.534C353.576 278.25 354.597 277.154 354.597 274.962Z" fill="#CF5C36"/>
<path d="M358.869 280V270.006H360.988V280H358.869Z" fill="#CF5C36"/>
<path d="M365.623 274.442H366.307C366.977 274.442 367.471 274.331 367.79 274.107C368.109 273.884 368.269 273.533 368.269 273.055C368.269 272.581 368.104 272.243 367.776 272.043C367.453 271.842 366.949 271.742 366.266 271.742H365.623V274.442ZM365.623 276.165V280H363.504V270.006H366.416C367.774 270.006 368.779 270.254 369.431 270.751C370.082 271.243 370.408 271.993 370.408 273C370.408 273.588 370.246 274.112 369.923 274.572C369.599 275.028 369.141 275.386 368.549 275.646C370.053 277.892 371.033 279.344 371.488 280H369.137L366.751 276.165H365.623Z" fill="#CF5C36"/>
<path d="M378.502 280H372.746V270.006H378.502V271.742H374.865V273.937H378.249V275.673H374.865V278.25H378.502V280Z" fill="#CF5C36"/>
<path d="M388.633 280H386.227L383.608 275.789L382.713 276.432V280H380.594V270.006H382.713V274.579L383.547 273.403L386.254 270.006H388.605L385.119 274.429L388.633 280Z" fill="#CF5C36"/>
<path d="M393.746 280H391.627V271.77H388.913V270.006H396.46V271.77H393.746V280Z" fill="#CF5C36"/>
<path d="M399.584 276.685H397.916L397.567 270.006H399.933L399.584 276.685ZM397.54 279.022C397.54 278.64 397.643 278.35 397.848 278.154C398.053 277.958 398.351 277.86 398.743 277.86C399.121 277.86 399.413 277.961 399.618 278.161C399.828 278.362 399.933 278.649 399.933 279.022C399.933 279.382 399.828 279.667 399.618 279.877C399.409 280.082 399.117 280.185 398.743 280.185C398.36 280.185 398.064 280.084 397.854 279.884C397.645 279.679 397.54 279.392 397.54 279.022Z" fill="#CF5C36"/>
<path d="M403.59 276.685H401.922L401.573 270.006H403.938L403.59 276.685ZM401.546 279.022C401.546 278.64 401.648 278.35 401.854 278.154C402.059 277.958 402.357 277.86 402.749 277.86C403.127 277.86 403.419 277.961 403.624 278.161C403.834 278.362 403.938 278.649 403.938 279.022C403.938 279.382 403.834 279.667 403.624 279.877C403.414 280.082 403.123 280.185 402.749 280.185C402.366 280.185 402.07 280.084 401.86 279.884C401.651 279.679 401.546 279.392 401.546 279.022Z" fill="#CF5C36"/>
</svg>
