<svg width="30" height="30" viewBox="0 0 30 30" fill="none" xmlns="http://www.w3.org/2000/svg">
<g opacity="0.8">
<path d="M0.626425 5.57555C4.74381 9.06252 11.9685 15.1972 14.092 17.11C14.377 17.3681 14.6828 17.4994 15.0002 17.4994C15.3169 17.4994 15.6221 17.3694 15.9066 17.1124C18.0318 15.1978 25.2565 9.06252 29.374 5.57555C29.6303 5.35887 29.6694 4.97801 29.4619 4.71311C28.9821 4.10098 28.2668 3.75 27.5002 3.75H2.50019C1.73361 3.75 1.01824 4.10098 0.538535 4.71316C0.330995 4.97801 0.370077 5.35887 0.626425 5.57555Z" fill="#E7AF9C"/>
<path d="M29.6375 7.46525C29.4159 7.36213 29.1553 7.3981 28.971 7.5556C24.4049 11.4264 18.5773 16.388 16.7438 18.0402C15.7147 18.9691 14.2864 18.9691 13.255 18.039C11.3006 16.2781 4.75641 10.7147 1.02902 7.55554C0.843457 7.39804 0.582246 7.3633 0.36252 7.46519C0.141621 7.56779 0 7.78875 0 8.03226V23.75C0 25.1289 1.12119 26.2501 2.50002 26.2501H27.5C28.8788 26.2501 30 25.1289 30 23.75V8.03226C30 7.78875 29.8584 7.5672 29.6375 7.46525Z" fill="#CF5C36"/>
</g>
</svg>
