<svg width="20" height="20" viewBox="0 0 20 20" fill="none" xmlns="http://www.w3.org/2000/svg">
<path d="M11.5074 10.0018L1.4639 19.673C0.993575 19.3516 0.714334 18.817 0.719272 18.2473V1.75626C0.714334 1.18663 0.993575 0.65199 1.4639 0.330566L11.5074 10.0018Z" fill="#2196F3"/>
<path d="M15.0217 6.62364L11.5074 10.0018L1.46387 0.330532C1.50171 0.301203 1.54113 0.273918 1.58191 0.248803C2.11272 -0.0729183 2.77574 -0.0833047 3.31639 0.221561L15.0217 6.62364Z" fill="#4CAF50"/>
<path d="M19.2807 10.0019C19.2873 10.645 18.9379 11.239 18.3727 11.5457L15.0218 13.38L11.5074 10.0019L15.0218 6.62378L18.3727 8.45813C18.9379 8.76486 19.2873 9.35885 19.2807 10.0019Z" fill="#FFC107"/>
<path d="M15.0217 13.3798L3.31639 19.7819C2.77455 20.082 2.11404 20.0717 1.58191 19.7547C1.54113 19.7295 1.50171 19.7023 1.46387 19.6729L11.5074 10.0017L15.0217 13.3798Z" fill="#F44336"/>
</svg>
