<svg width="36" height="36" viewBox="0 0 36 36" fill="none" xmlns="http://www.w3.org/2000/svg">
<path d="M18 0C11.0178 0 5.34375 5.67422 5.34375 12.6562C5.34375 15.0188 5.9978 17.318 7.24226 19.3009L17.142 35.5018C17.3109 35.7761 17.5641 35.9449 17.8594 35.9871C18.2601 36.0503 18.7033 35.8816 18.9352 35.4808L28.8634 19.132C30.0445 17.1915 30.6562 14.9344 30.6562 12.6562C30.6562 5.67422 24.9822 0 18 0ZM18 18.9844C14.4564 18.9844 11.6719 16.1156 11.6719 12.6562C11.6719 9.17571 14.5195 6.32812 18 6.32812C21.4805 6.32812 24.3281 9.17571 24.3281 12.6562C24.3281 16.0945 21.5859 18.9844 18 18.9844Z" fill="#E7AF9C"/>
</svg>
