<svg width="21" height="21" viewBox="0 0 21 21" fill="none" xmlns="http://www.w3.org/2000/svg">
<path d="M10.5 6.93437C12.8748 6.93437 14.1066 8.16621 14.1066 10.541C14.1066 12.9158 12.8748 14.1477 10.5 14.1477C8.1252 14.1477 6.89336 12.9158 6.89336 10.541C6.89336 8.16621 8.1252 6.93437 10.5 6.93437ZM10.5 6.93437C12.8748 6.93437 14.1066 8.16621 14.1066 10.541C14.1066 12.9158 12.8748 14.1477 10.5 14.1477C8.1252 14.1477 6.89336 12.9158 6.89336 10.541C6.89336 8.16621 8.1252 6.93437 10.5 6.93437ZM3.07617 0H17.9238C19.6219 0 21 1.37812 21 3.07617V17.9238C21 19.6219 19.6219 21 17.9238 21H3.07617C1.37813 21 0 19.6219 0 17.9238V3.07617C0 1.37812 1.37813 0 3.07617 0ZM10.5 16.0781C13.5515 16.0781 16.0371 13.5925 16.0371 10.541C16.0371 7.48941 13.5515 5.00391 10.5 5.00391C7.44848 5.00391 4.96289 7.48941 4.96289 10.541C4.96289 13.5925 7.44848 16.0781 10.5 16.0781ZM3.73242 5.00391C4.40918 5.00391 4.96289 4.4502 4.96289 3.77344C4.96289 3.09668 4.40918 2.54297 3.73242 2.54297C3.05566 2.54297 2.50195 3.09668 2.50195 3.77344C2.50195 4.4502 3.05566 5.00391 3.73242 5.00391ZM10.5 6.93437C12.8748 6.93437 14.1066 8.16621 14.1066 10.541C14.1066 12.9158 12.8748 14.1477 10.5 14.1477C8.1252 14.1477 6.89336 12.9158 6.89336 10.541C6.89336 8.16621 8.1252 6.93437 10.5 6.93437ZM10.5 6.93437C12.8748 6.93437 14.1066 8.16621 14.1066 10.541C14.1066 12.9158 12.8748 14.1477 10.5 14.1477C8.1252 14.1477 6.89336 12.9158 6.89336 10.541C6.89336 8.16621 8.1252 6.93437 10.5 6.93437ZM10.5 6.93437C12.8748 6.93437 14.1066 8.16621 14.1066 10.541C14.1066 12.9158 12.8748 14.1477 10.5 14.1477C8.1252 14.1477 6.89336 12.9158 6.89336 10.541C6.89336 8.16621 8.1252 6.93437 10.5 6.93437Z" fill="#F2F2F2"/>
</svg>
