<svg width="128" height="128" viewBox="0 0 128 128" fill="none" xmlns="http://www.w3.org/2000/svg">
<path d="M104.167 128H23.8333C21.7623 128 20.0833 126.321 20.0833 124.25V11.7834C20.0833 9.71245 21.7623 8.03345 23.8333 8.03345H104.167C106.238 8.03345 107.917 9.71245 107.917 11.7834V124.25C107.917 126.321 106.238 128 104.167 128Z" fill="#E7AF9C"/>
<path d="M80.2156 21H47.7847C45.6945 21 44 19.7176 44 18.1358V5.8642C44 4.2824 45.6945 3 47.7847 3H80.2153C82.3055 3 84 4.2824 84 5.8642V18.1358C84.0003 19.7176 82.3057 21 80.2156 21Z" fill="#CF5C36"/>
<path d="M51 44L92 44" stroke="#CF5C36" stroke-width="4" stroke-linecap="round"/>
<path d="M51 60L92 60" stroke="#CF5C36" stroke-width="4" stroke-linecap="round"/>
<path d="M51 76L92 76" stroke="#CF5C36" stroke-width="4" stroke-linecap="round"/>
<path d="M51 92L92 92" stroke="#CF5C36" stroke-width="4" stroke-linecap="round"/>
<rect x="31" y="40" width="8" height="8" rx="2" fill="white"/>
<rect x="31" y="56" width="8" height="8" rx="2" fill="white"/>
<rect x="31" y="72" width="8" height="8" rx="2" fill="white"/>
<rect x="31" y="88" width="8" height="8" rx="2" fill="white"/>
</svg>
