<svg width="60" height="60" viewBox="0 0 60 60" fill="none" xmlns="http://www.w3.org/2000/svg">
<circle cx="30" cy="30" r="30" fill="#FCE5D9"/>
<path d="M19.4732 42.0122C18.1354 42.0122 17.0485 41.593 16.2124 40.7545C15.4041 39.916 15 38.6583 15 36.9814C15 36.2826 15.1115 35.3743 15.3344 34.2563L22.0652 8.07993L28.2525 7.24146L21.1873 35.0529C21.0758 35.4721 21.0201 35.9193 21.0201 36.3944C21.0201 36.9534 21.1455 37.3587 21.3963 37.6102C21.675 37.8338 22.1209 37.9456 22.7341 37.9456C23.5423 37.9456 24.2949 37.6102 24.9916 36.9394C25.6884 36.2407 26.1901 35.3463 26.4966 34.2563H28.2525C27.2213 37.2748 25.8974 39.3291 24.2809 40.4191C22.6644 41.4812 21.0619 42.0122 19.4732 42.0122Z" fill="#CF5C36"/>
<path d="M29.6572 19.2476H35.6773L35.0084 22.3919C36.4019 21.1901 38.0323 20.5892 39.8997 20.5892C41.4604 20.5892 42.7007 21.1062 43.6204 22.1404C44.5401 23.1745 45 24.8654 45 27.2131C45 29.4211 44.6795 31.657 44.0385 33.9209C43.3974 36.1569 42.3105 38.0714 40.7776 39.6645C39.2447 41.2296 37.2241 42.0122 34.7157 42.0122C32.932 42.0122 31.7475 41.5091 31.1622 40.503L28.9883 50.7324L22.6756 52.2416L29.6572 19.2476ZM33.4198 38.3648C34.7575 38.3648 35.8584 37.736 36.7224 36.4783C37.6143 35.2206 38.2553 33.7253 38.6455 31.9924C39.0636 30.2316 39.2726 28.5966 39.2726 27.0874C39.2726 24.7676 38.5758 23.6077 37.1823 23.6077C36.6806 23.6077 36.165 23.7894 35.6355 24.1527C35.1338 24.516 34.6879 25.0191 34.2977 25.6619L31.8311 37.4006C32.0541 38.0434 32.5836 38.3648 33.4198 38.3648Z" fill="#CF5C36"/>
</svg>
