<svg width="28" height="28" viewBox="0 0 28 28" fill="none" xmlns="http://www.w3.org/2000/svg">
<g clip-path="url(#clip0)">
<path d="M10.8157 4.17951L7.33741 0.701284C6.41877 -0.233761 4.77815 -0.233761 3.8431 0.701284L3.28513 1.27561C3.26528 1.29546 2.67832 1.87345 2.67832 1.89905C2.38289 2.21076 2.39914 2.71936 2.71096 3.01467L8.50242 8.80601C8.79778 9.13446 9.35538 9.13424 9.65096 8.80601L10.8157 7.64122C11.7516 6.73768 11.8086 5.13796 10.8157 4.17951Z" fill="#CF5C36"/>
<path d="M27.2738 20.6706L23.7957 17.1925C22.877 16.2574 21.2528 16.2574 20.3339 17.1925L19.7598 17.7832L19.1691 18.3573C18.8411 18.6691 18.8411 19.1941 19.1691 19.5058L24.977 25.3135C25.2605 25.6292 25.8006 25.6545 26.1418 25.3135L26.6996 24.7394L27.2737 24.1487C28.2419 23.1973 28.2419 21.6222 27.2738 20.6706Z" fill="#CF5C36"/>
<path d="M26.7 24.7395L26.1422 25.3137C21.6634 29.3497 16.4297 28.3817 13.4767 25.4121L2.59665 14.499C-0.865225 11.0537 -0.865225 5.42635 2.59665 1.9647C2.61306 1.9647 2.74425 1.83339 2.74425 1.81709L3.2856 1.27563L10.2254 8.21541L9.89731 8.55999L9.65138 8.80603C9.12627 9.38031 8.69971 9.74119 8.69971 10.5451C8.69971 11.0537 8.89658 11.5131 9.24122 11.874L11.981 14.6139L16.1014 18.7676C16.8069 19.4731 18.0374 19.4731 18.7429 18.7676L19.1695 18.3575L19.7601 17.7833L26.7 24.7395Z" fill="#E7AF9C"/>
</g>
<defs>
<clipPath id="clip0">
<rect width="28" height="28" fill="white"/>
</clipPath>
</defs>
</svg>
