<svg width="29" height="29" viewBox="0 0 29 29" fill="none" xmlns="http://www.w3.org/2000/svg">
<path d="M23.8448 5.15517C23.0749 4.3851 22.1474 4 21.0628 4H7.93753C6.85298 4 5.9254 4.3851 5.15518 5.15517C4.38511 5.92537 4 6.85289 4 7.93747V21.0624C4 22.1469 4.38511 23.0745 5.15518 23.8447C5.9254 24.6149 6.85298 25 7.93753 25H21.0627C22.1472 25 23.0748 24.6149 23.8447 23.8447C24.6149 23.0745 25 22.1469 25 21.0624V7.93747C25 6.85289 24.6148 5.92523 23.8448 5.15517ZM20.0646 12.0801C20.0738 12.1622 20.0784 12.285 20.0784 12.4493C20.0784 13.215 19.9667 13.9829 19.7435 14.7529C19.5203 15.5232 19.1784 16.2615 18.7179 16.9678C18.2579 17.6741 17.7087 18.2986 17.0708 18.8409C16.4327 19.383 15.6672 19.8161 14.7737 20.1394C13.8807 20.4632 12.9235 20.6251 11.9027 20.6251C10.3169 20.6251 8.84945 20.1965 7.50041 19.3401C7.71916 19.3673 7.94716 19.381 8.18401 19.381C9.50569 19.381 10.6952 18.9709 11.7525 18.1503C11.1328 18.1415 10.579 17.9502 10.0914 17.5761C9.60367 17.2025 9.26425 16.7286 9.07279 16.1543C9.30969 16.1907 9.4874 16.2088 9.60587 16.2088C9.80638 16.2088 10.0389 16.1724 10.3031 16.0996C9.63777 15.9718 9.07729 15.6417 8.62155 15.1085C8.16571 14.5753 7.93787 13.9669 7.93787 13.2834V13.256C8.42081 13.4837 8.87655 13.6022 9.305 13.6114C8.47554 13.0553 8.06084 12.2579 8.06084 11.2189C8.06084 10.7084 8.19291 10.2254 8.45725 9.76965C9.17724 10.6538 10.0524 11.3601 11.0822 11.8887C12.1121 12.4173 13.2151 12.7137 14.3909 12.7774C14.3454 12.6042 14.3225 12.3854 14.3225 12.1212C14.3225 11.3281 14.6028 10.6514 15.1634 10.0908C15.7239 9.53027 16.4007 9.24989 17.1936 9.24989C18.0323 9.24989 18.7297 9.55076 19.2857 10.1524C19.9146 10.0339 20.5256 9.80135 21.1178 9.45513C20.89 10.1568 20.4659 10.69 19.8464 11.0546C20.4387 10.9725 20.99 10.8176 21.5003 10.5898C21.1175 11.1731 20.6389 11.6698 20.0646 12.0801Z" fill="#F2F2F2"/>
</svg>
