<svg width="21" height="21" viewBox="0 0 21 21" fill="none" xmlns="http://www.w3.org/2000/svg">
<path d="M19.8448 1.15517C19.0749 0.385103 18.1474 0 17.0628 0H3.93753C2.85298 0 1.9254 0.385103 1.15519 1.15517C0.38511 1.92537 0 2.85289 0 3.93747V17.0624C0 18.1469 0.38511 19.0745 1.15519 19.8447C1.9254 20.6149 2.85298 21 3.93753 21H17.0627C18.1472 21 19.0748 20.6149 19.8447 19.8447C20.6149 19.0745 21 18.1469 21 17.0624V3.93747C21 2.85289 20.6149 1.92523 19.8448 1.15517ZM16.0647 8.08013C16.0738 8.16216 16.0784 8.28499 16.0784 8.44934C16.0784 9.215 15.9667 9.98291 15.7435 10.7529C15.5203 11.5232 15.1784 12.2615 14.7179 12.9678C14.2579 13.6741 13.7087 14.2986 13.0708 14.8409C12.4327 15.383 11.6672 15.8161 10.7737 16.1394C9.88073 16.4632 8.92351 16.6252 7.90274 16.6252C6.31691 16.6252 4.84945 16.1965 3.50042 15.3401C3.71917 15.3673 3.94716 15.381 4.18401 15.381C5.5057 15.381 6.69517 14.9709 7.75252 14.1503C7.13281 14.1415 6.579 13.9502 6.09141 13.5761C5.60368 13.2025 5.26425 12.7286 5.0728 12.1543C5.30969 12.1907 5.4874 12.2088 5.60588 12.2088C5.80638 12.2088 6.03887 12.1724 6.30312 12.0996C5.63777 11.9718 5.0773 11.6417 4.62155 11.1085C4.16572 10.5753 3.93787 9.96691 3.93787 9.28338V9.25604C4.42081 9.48374 4.87655 9.60221 5.305 9.61145C4.47555 9.05534 4.06084 8.25794 4.06084 7.21889C4.06084 6.70842 4.19292 6.22539 4.45725 5.76966C5.17724 6.65383 6.05243 7.36011 7.08224 7.88873C8.11215 8.4173 9.21514 8.71367 10.3909 8.77741C10.3454 8.60425 10.3225 8.38541 10.3225 8.12117C10.3225 7.32808 10.6028 6.65144 11.1634 6.09083C11.7239 5.53027 12.4007 5.2499 13.1936 5.2499C14.0323 5.2499 14.7297 5.55077 15.2857 6.15237C15.9146 6.03389 16.5256 5.80136 17.1178 5.45514C16.89 6.15677 16.466 6.69004 15.8464 7.05464C16.4387 6.97247 16.99 6.81761 17.5003 6.58976C17.1176 7.17307 16.6389 7.66979 16.0647 8.08013Z" fill="#F2F2F2"/>
</svg>
