<svg width="114" height="114" viewBox="0 0 114 114" fill="none" xmlns="http://www.w3.org/2000/svg">
<g clip-path="url(#clip0)">
<path d="M28.0548 16.611V8.1556L85.945 8.15515V16.6105C85.945 29.9652 79.5149 42.6166 68.4484 50.7391C66.451 52.2052 65.2578 54.5235 65.2578 57.0013C65.2578 59.4741 66.4436 61.7924 68.4375 63.255C79.7411 71.5472 85.9456 84.3081 85.9456 97.3891V105.845L28.0555 105.845V97.3898C28.0555 84.3288 34.2426 71.561 45.5643 63.255C47.5577 61.7926 48.7427 59.4745 48.7427 57.0022V57.0019C48.7427 54.5235 47.5488 52.2052 45.5509 50.7388C34.5094 42.6339 28.0548 29.9951 28.0548 16.611Z" fill="#E7AF9C"/>
<path d="M79.2658 99.0489V97.9242C79.2658 92.3327 76.374 87.0408 71.2197 82.799C67.2054 79.4952 62.1641 77.7551 57.0007 77.7551C51.8373 77.7551 46.7959 79.4954 42.7814 82.7992C37.6269 87.0415 34.735 92.3331 34.735 97.9245V99.0491L79.2658 99.0489Z" fill="white"/>
<path d="M87.5036 8.15598H26.496C24.2826 8.15598 22.4882 6.33043 22.4882 4.07848C22.4882 1.82653 24.2826 0.000976562 26.496 0.000976562H87.5036C89.7173 0.000976562 91.5117 1.82676 91.5114 4.07893C91.5112 6.33065 89.7171 8.15598 87.5036 8.15598Z" fill="#CF5C36"/>
<path d="M87.5036 114H26.496C24.2826 114 22.4882 112.174 22.4882 109.922C22.4882 107.671 24.2826 105.845 26.496 105.845H87.5036C89.7173 105.845 91.5117 107.671 91.5114 109.923C91.5112 112.175 89.7171 114 87.5036 114Z" fill="#CF5C36"/>
<path d="M57.0004 73.5151C57.9504 73.5151 58.7206 72.7449 58.7206 71.7948V69.501C58.7206 68.5507 57.9504 67.7808 57.0004 67.7808C56.0503 67.7808 55.2801 68.5509 55.2801 69.501V71.7948C55.2801 72.7449 56.0503 73.5151 57.0004 73.5151ZM57.0004 64.5694C57.9504 64.5694 58.7206 63.7992 58.7206 62.8492V60.5554C58.7206 59.6051 57.9504 58.8351 57.0004 58.8351C56.0503 58.8351 55.2801 59.6053 55.2801 60.5554V62.8492C55.2801 63.7992 56.0503 64.5694 57.0004 64.5694ZM57.0004 55.6238C57.9504 55.6238 58.7206 54.8536 58.7206 53.9035V51.6097C58.7206 50.6594 57.9504 49.8895 57.0004 49.8895C56.0503 49.8895 55.2801 50.6596 55.2801 51.6097V53.9035C55.2801 54.8536 56.0503 55.6238 57.0004 55.6238Z" fill="white"/>
<path d="M78.8777 21.8105C77.7737 29.1628 74.3477 35.9445 69.0852 41.3005C65.8834 44.5593 61.5283 46.3733 56.9995 46.3733C52.4706 46.3733 48.1157 44.5593 44.9139 41.3007C39.6516 35.9452 36.2256 29.1633 35.1217 21.8105H78.8777Z" fill="white"/>
</g>
<defs>
<clipPath id="clip0">
<rect width="114" height="114" fill="white" transform="matrix(-1 0 0 1 114 0)"/>
</clipPath>
</defs>
</svg>
